<svg width="1500" height="500" viewBox="0 0 1500 500" fill="none" xmlns="http://www.w3.org/2000/svg">
<g clip-path="url(#clip0_47_2)">
<rect width="1500" height="500" fill="white"/>
<rect width="1500" height="63" fill="#00748C"/>
<rect y="63" width="1500" height="62" fill="#00B4DA"/>
<rect y="125" width="1500" height="63" fill="#5AE2FF"/>
<rect y="188" width="1500" height="62" fill="#ACF0FF"/>
<rect width="1500" height="63" transform="matrix(1 0 0 -1 0 500)" fill="#00748C"/>
<rect width="1500" height="62" transform="matrix(1 0 0 -1 0 437)" fill="#00B4DA"/>
<rect width="1500" height="63" transform="matrix(1 0 0 -1 0 375)" fill="#5AE2FF"/>
<rect width="1500" height="62" transform="matrix(1 0 0 -1 0 312)" fill="#ACF0FF"/>
<rect y="234" width="1500" height="31" fill="#DDF9FF"/>
<rect x="550" y="77" width="200" height="347" fill="#7D5CA7"/>
<rect x="450" y="135" width="200" height="230" fill="#7D5CA7"/>
<rect x="350" y="192" width="150" height="115" fill="#7D5CA7"/>
<rect x="650" y="20" width="200" height="460" fill="#7D5CA7"/>
<rect width="200" height="347" transform="matrix(-1 0 0 1 950 77)" fill="#7D5CA7"/>
<rect width="200" height="230" transform="matrix(-1 0 0 1 1050 135)" fill="#7D5CA7"/>
<rect width="150" height="115" transform="matrix(-1 0 0 1 1150 192)" fill="#7D5CA7"/>
<rect x="550" y="77" width="27" height="27" fill="#D9D9D9"/>
<rect x="550" y="77" width="12" height="12" fill="white"/>
<rect x="650" y="20" width="27" height="27" fill="#D9D9D9"/>
<rect x="650" y="20" width="12" height="12" fill="white"/>
<rect x="350" y="192" width="27" height="27" fill="#D9D9D9"/>
<rect x="350" y="192" width="12" height="12" fill="white"/>
<rect x="450" y="135" width="27" height="27" fill="#D9D9D9"/>
<rect x="450" y="135" width="12" height="12" fill="white"/>
<rect width="27" height="27" transform="matrix(-1 0 0 1 950 77)" fill="#D9D9D9"/>
<rect width="12" height="12" transform="matrix(-1 0 0 1 950 77)" fill="white"/>
<rect width="27" height="27" transform="matrix(-1 0 0 1 850 20)" fill="#D9D9D9"/>
<rect width="12" height="12" transform="matrix(-1 0 0 1 850 20)" fill="white"/>
<rect width="27" height="27" transform="matrix(-1 0 0 1 1150 192)" fill="#D9D9D9"/>
<rect width="12" height="12" transform="matrix(-1 0 0 1 1150 192)" fill="white"/>
<rect width="27" height="27" transform="matrix(-1 0 0 1 1050 135)" fill="#D9D9D9"/>
<rect width="12" height="12" transform="matrix(-1 0 0 1 1050 135)" fill="white"/>
<rect width="27" height="27" transform="matrix(1 0 0 -1 550 424)" fill="#D9D9D9"/>
<rect width="12" height="12" transform="matrix(1 0 0 -1 550 424)" fill="white"/>
<rect width="27" height="27" transform="matrix(1 0 0 -1 650 480)" fill="#D9D9D9"/>
<rect width="12" height="12" transform="matrix(1 0 0 -1 650 480)" fill="white"/>
<rect width="27" height="27" transform="matrix(1 0 0 -1 350 308)" fill="#D9D9D9"/>
<rect width="12" height="12" transform="matrix(1 0 0 -1 350 308)" fill="white"/>
<rect width="27" height="27" transform="matrix(1 0 0 -1 450 365)" fill="#D9D9D9"/>
<rect width="12" height="12" transform="matrix(1 0 0 -1 450 365)" fill="white"/>
<rect x="950" y="424" width="27" height="27" transform="rotate(180 950 424)" fill="#D9D9D9"/>
<rect x="950" y="424" width="12" height="12" transform="rotate(180 950 424)" fill="white"/>
<rect x="850" y="480" width="27" height="27" transform="rotate(180 850 480)" fill="#D9D9D9"/>
<rect x="850" y="480" width="12" height="12" transform="rotate(180 850 480)" fill="white"/>
<rect x="1150" y="308" width="27" height="27" transform="rotate(180 1150 308)" fill="#D9D9D9"/>
<rect x="1150" y="308" width="12" height="12" transform="rotate(180 1150 308)" fill="white"/>
<rect x="1050" y="365" width="27" height="27" transform="rotate(180 1050 365)" fill="#D9D9D9"/>
<rect x="1050" y="365" width="12" height="12" transform="rotate(180 1050 365)" fill="white"/>
<path d="M1150 250L750 20V480L1150 250Z" fill="#E8D52C"/>
<path d="M350 250L750 20V480L350 250Z" fill="#E8D52C"/>
<path d="M750.488 31L371.49 250H750.488V31Z" fill="#295625"/>
<path d="M750.488 469L371.49 250H750.488V469Z" fill="#3F2C0F"/>
<path d="M730.952 63L442.796 229H730.952V63Z" fill="#46923F"/>
<path d="M711.416 97L516.056 209H711.416V97Z" fill="#7ED975"/>
<path d="M730.952 435L442.796 269H730.952V435Z" fill="#875F21"/>
<path d="M750.488 470L371.49 251H750.488V470Z" fill="#3F1B0F"/>
<path d="M730.952 436L442.796 270H730.952V436Z" fill="#983425"/>
<path d="M711.416 402L516.056 290H711.416V402Z" fill="#F56639"/>
<path d="M749.488 470L1128.49 251H749.488V470Z" fill="#295625"/>
<path d="M770.024 438L1058.18 272H770.024V438Z" fill="#46923F"/>
<path d="M789.56 404L984.921 292H789.56V404Z" fill="#7ED975"/>
<path d="M750.488 32L1129.49 251H750.488V32Z" fill="#3F1B0F"/>
<path d="M770.024 66L1058.18 232H770.024V66Z" fill="#983425"/>
<path d="M789.56 100L984.921 212H789.56V100Z" fill="#F56639"/>
<line x1="12" y1="79" x2="53" y2="79" stroke="#E8D52C" stroke-width="8"/>
<path d="M40.1761 15.8609C87.5605 21.2915 117.348 34.596 139.278 63.0049C122.981 79.9999 106.973 90.4157 90.1016 96.8148C74.8468 102.601 58.7157 105.169 40.721 106.206C52.1674 91.4156 58.4429 78.17 58.5158 63.7855C58.5899 49.1697 52.246 34.124 40.1761 15.8609Z" stroke="#E8D52C" stroke-width="8"/>
<line x1="364" y1="250" x2="294" y2="250" stroke="#E8D52C" stroke-width="6"/>
<path d="M154.5 206.15L241.99 249.5L154.5 292.85L154.5 206.15Z" stroke="#E8D52C" stroke-width="8"/>
<circle cx="101" cy="250" r="24" fill="#E8D52C"/>
<rect x="30" y="227" width="22" height="46" fill="#E8D52C"/>
<circle cx="272" cy="249" r="18" stroke="#E8D52C" stroke-width="8"/>
<circle cx="166" cy="63" r="18" stroke="#E8D52C" stroke-width="8"/>
<path d="M183.5 63H228L241.5 25.5L266 83.5L285.5 25.5L301 83.5L324 25.5L337 63L501 66L130 151H324V250" stroke="#E8D52C" stroke-width="8" stroke-miterlimit="16"/>
<line x1="12" y1="44" x2="53" y2="44" stroke="#E8D52C" stroke-width="8"/>
<line y1="-4" x2="41" y2="-4" transform="matrix(1 0 0 -1 12 417.593)" stroke="#E8D52C" stroke-width="8"/>
<path d="M40.1761 484.732C87.5605 479.302 117.348 465.997 139.278 437.588C122.981 420.593 106.973 410.177 90.1016 403.778C74.8468 397.992 58.7157 395.424 40.721 394.387C52.1674 409.177 58.4429 422.423 58.5158 436.808C58.5899 451.423 52.246 466.469 40.1761 484.732Z" stroke="#E8D52C" stroke-width="8"/>
<circle cx="22" cy="22" r="18" transform="matrix(1 0 0 -1 144 459)" stroke="#E8D52C" stroke-width="8"/>
<line y1="-4" x2="41" y2="-4" transform="matrix(1 0 0 -1 12 452.593)" stroke="#E8D52C" stroke-width="8"/>
<line y1="-4" x2="41" y2="-4" transform="matrix(-1 0 0 1 1488.5 83)" stroke="#E8D52C" stroke-width="8"/>
<path d="M1460.32 15.8609C1412.94 21.2915 1383.15 34.596 1361.22 63.0049C1377.52 79.9999 1393.53 90.4157 1410.4 96.8148C1425.65 102.601 1441.78 105.169 1459.78 106.206C1448.33 91.4156 1442.06 78.17 1441.98 63.7855C1441.91 49.1697 1448.25 34.124 1460.32 15.8609Z" stroke="#E8D52C" stroke-width="8"/>
<path d="M1139.5 252L1207 252" stroke="#E8D52C" stroke-width="6"/>
<path d="M1346.5 208.15L1259.01 251.5L1346.5 294.85L1346.5 208.15Z" stroke="#E8D52C" stroke-width="8"/>
<circle cx="24" cy="24" r="24" transform="matrix(-1 0 0 1 1424 228)" fill="#E8D52C"/>
<rect width="22" height="46" transform="matrix(-1 0 0 1 1471 229)" fill="#E8D52C"/>
<circle cx="22" cy="22" r="18" transform="matrix(-1 0 0 1 1251 229)" stroke="#E8D52C" stroke-width="8"/>
<circle cx="22" cy="22" r="18" transform="matrix(-1 0 0 1 1357 43)" stroke="#E8D52C" stroke-width="8"/>
<line y1="-4" x2="41" y2="-4" transform="matrix(-1 0 0 1 1488.5 48)" stroke="#E8D52C" stroke-width="8"/>
<line x1="1488.5" y1="422.593" x2="1447.5" y2="422.593" stroke="#E8D52C" stroke-width="8"/>
<path d="M1460.32 485.732C1412.94 480.302 1383.15 466.997 1361.22 438.588C1377.52 421.593 1393.53 411.177 1410.4 404.778C1425.65 398.992 1441.78 396.424 1459.78 395.387C1448.33 410.177 1442.06 423.423 1441.98 437.808C1441.91 452.423 1448.25 467.469 1460.32 485.732Z" stroke="#E8D52C" stroke-width="8"/>
<circle cx="1335" cy="438.593" r="18" transform="rotate(180 1335 438.593)" stroke="#E8D52C" stroke-width="8"/>
<line x1="1488.5" y1="457.593" x2="1447.5" y2="457.593" stroke="#E8D52C" stroke-width="8"/>
<path d="M1317.5 441H1273L1259.5 478.5L1235 420.5L1215.5 478.5L1200 420.5L1177 478.5L1164 441L998 435L1371 353H1177V254" stroke="#E8D52C" stroke-width="8" stroke-miterlimit="16"/>
<path d="M1317.5 62.5H1273L1259.5 25L1235 83L1215.5 25L1200 83L1177 25L1164 62.5L1001 68L1371 150.5H1177V249.5" stroke="#E8D52C" stroke-width="8" stroke-miterlimit="16"/>
<path fill-rule="evenodd" clip-rule="evenodd" d="M285.938 489.354L301.741 430.22L324.252 486.986L339.868 441.939L531.888 437.803L165.434 354H328V251H320V346H94.5662L467.113 431.197L334.132 434.061L323.748 464.014L300.259 404.78L285.062 461.646L266.425 406.214L241.797 464.517L230.811 434H183.5V442H225.189L241.203 486.483L265.575 428.787L285.938 489.354Z" fill="#E8D52C"/>
<path d="M750.218 386.019C763.392 372.161 771.628 352.2 774.1 343.952C779.659 276.478 757.225 256.686 745.313 255.225C730.237 285.675 729.322 313.539 732.869 341.083C735.706 363.118 745.617 380.222 750.218 386.019Z" fill="#DDDADA" stroke="#A5A5A5" stroke-width="4" stroke-miterlimit="16"/>
<path d="M637 183.41C642.2 201.81 655.167 219.077 661 225.41C716.2 264.61 744.667 255.41 752 245.91C733.5 217.41 710 202.41 684.5 191.41C664.1 182.61 644.333 182.41 637 183.41Z" fill="#DDDADA" stroke="#A5A5A5" stroke-width="4" stroke-miterlimit="16"/>
<path d="M871.184 186.73C852.845 181.32 831.324 183.084 822.856 184.643C760.262 210.443 752.868 239.432 756.995 250.701C790.97 250.244 816.19 238.36 839.091 222.651C857.412 210.084 868.12 193.468 871.184 186.73Z" fill="#DDDADA" stroke="#A5A5A5" stroke-width="4" stroke-miterlimit="16"/>
<path fill-rule="evenodd" clip-rule="evenodd" d="M752.002 93.6465C753.205 98.6097 760.901 112.106 782.235 123.168C793.135 128.82 800.989 134.472 806.39 139.266C811.685 143.965 814.69 147.902 815.849 150.254C818.987 155.006 824.861 167.656 824.042 181.588C822.99 199.472 808.79 214.829 781.034 224.418C759.947 231.702 757.956 241.949 758.882 245.721C761.684 248.356 771.743 251.413 788.575 236.69C810.677 217.355 831.058 212.653 847.105 220.618C859.606 226.823 867.67 238.203 870.238 243.285C871.704 245.459 873.629 250.022 875.081 256.952C876.56 264.019 877.567 273.643 877.062 285.911C876.074 309.923 883.97 323.303 887.681 326.811L893.5 332L886.419 330.024C881.514 328.605 865.977 328.585 845.784 341.613C835.466 348.269 826.66 352.282 819.818 354.59C813.11 356.853 808.201 357.508 805.584 357.346C799.901 357.711 786.004 356.53 774.316 348.902C759.314 339.111 753.032 319.161 758.488 290.306C760.614 279.059 759.683 271.38 757.762 266.466C755.941 261.81 753.294 259.742 751.537 259.201C747.835 260.42 740.211 267.523 745.113 289.244C751.579 317.889 746.001 338.048 731.352 348.36C719.94 356.394 706.092 358.062 700.401 357.897C697.791 358.15 692.862 357.668 686.078 355.642C679.159 353.575 670.218 349.875 659.673 343.585C639.034 331.274 623.508 331.839 618.656 333.43L610 337L616.432 330.79C620.017 327.153 627.438 313.504 625.607 289.542C624.672 277.3 625.34 267.646 626.571 260.531C627.778 253.555 629.542 248.927 630.931 246.703C633.319 241.533 640.979 229.878 653.254 223.238C669.011 214.714 689.544 218.698 712.312 237.244C721.212 244.493 728.092 247.407 733 248.132C737.646 248.818 740.429 247.545 741.699 246.249C742.642 242.499 740.693 232.22 719.554 224.918C691.798 215.329 677.599 199.972 676.547 182.088C675.727 168.156 681.602 155.506 684.739 150.754C685.898 148.402 688.903 144.465 694.199 139.766C699.599 134.972 707.453 129.32 718.354 123.668C739.688 112.606 747.383 99.1097 748.586 94.1465L750.408 88L752.002 93.6465ZM750.408 97.9493C753.698 104.966 762.594 116.363 780.854 125.832C791.553 131.38 799.199 136.894 804.398 141.509C809.63 146.153 812.315 149.822 813.192 151.649L813.238 151.744L813.296 151.832C816.173 156.148 821.822 168.229 821.047 181.412C820.099 197.528 807.298 212.171 780.054 221.582C757.769 229.281 754.234 241.105 756.116 246.959L756.216 247.27L756.437 247.512C760.609 252.078 772.844 254.436 790.55 238.948C812.245 219.97 831.31 216.128 845.771 223.305C857.6 229.177 865.282 240.078 867.601 244.718L867.648 244.813L867.708 244.899C868.858 246.568 870.711 250.72 872.144 257.566C873.569 264.371 874.561 273.746 874.065 285.788C873.199 306.835 878.964 320.361 883.475 326.505C875.751 325.877 861.441 327.941 844.157 339.092C834.029 345.626 825.447 349.525 818.859 351.747C812.231 353.984 807.713 354.493 805.692 354.347L805.587 354.339L805.481 354.347C800.306 354.702 787.015 353.608 775.956 346.39C762.437 337.566 756.081 319.186 761.436 290.864C763.633 279.24 762.739 270.958 760.556 265.374C758.39 259.836 754.883 256.826 751.826 256.179L751.489 256.108L751.154 256.191C745.186 257.674 736.996 266.906 742.187 289.905C748.533 318.022 742.827 336.614 729.625 345.907C718.827 353.509 705.582 355.069 700.398 354.895L700.292 354.892L700.187 354.903C698.172 355.12 693.639 354.77 686.937 352.767C680.275 350.778 671.561 347.182 661.21 341.008C643.119 330.217 628.48 328.841 620.929 329.879C625.162 323.387 630.166 309.823 628.599 289.314C627.681 277.296 628.342 267.893 629.527 261.042C630.72 254.15 632.425 249.935 633.517 248.227L633.573 248.138L633.617 248.042C635.771 243.323 643.066 232.159 654.682 225.876C668.881 218.195 688.07 221.366 710.418 239.57C719.564 247.02 726.936 250.269 732.561 251.099C738.184 251.929 742.172 250.339 744.186 247.972L744.381 247.744L744.472 247.459C746.354 241.605 742.82 229.781 720.534 222.082C693.29 212.671 680.49 198.028 679.542 181.912C678.766 168.729 684.415 156.648 687.292 152.332L687.351 152.244L687.397 152.149C688.273 150.322 690.959 146.653 696.19 142.009C701.389 137.394 709.035 131.88 719.735 126.332C738.435 116.635 747.314 104.916 750.408 97.9493Z" fill="#B5B5B5"/>
<path d="M750.408 97.9493C753.698 104.966 762.594 116.363 780.854 125.832C791.553 131.38 799.199 136.894 804.398 141.509C809.63 146.153 812.315 149.822 813.192 151.649L813.238 151.744L813.296 151.832C816.173 156.148 821.822 168.229 821.047 181.412C820.099 197.528 807.298 212.171 780.054 221.582C757.769 229.281 754.234 241.105 756.116 246.959L756.216 247.27L756.437 247.512C760.609 252.078 772.844 254.436 790.55 238.948C812.245 219.97 831.31 216.128 845.771 223.305C857.6 229.177 865.282 240.078 867.601 244.718L867.648 244.813L867.708 244.899C868.858 246.568 870.711 250.72 872.144 257.566C873.569 264.371 874.561 273.746 874.065 285.788C873.199 306.835 878.964 320.361 883.475 326.505C875.751 325.877 861.441 327.941 844.157 339.092C834.029 345.626 825.447 349.525 818.859 351.747C812.231 353.984 807.713 354.493 805.692 354.347L805.587 354.339L805.481 354.347C800.306 354.702 787.015 353.608 775.956 346.39C762.437 337.566 756.081 319.186 761.436 290.864C763.633 279.24 762.739 270.958 760.556 265.374C758.39 259.836 754.883 256.826 751.826 256.179L751.489 256.108L751.154 256.191C745.186 257.674 736.996 266.906 742.187 289.905C748.533 318.022 742.827 336.614 729.625 345.907C718.827 353.509 705.582 355.069 700.398 354.895L700.292 354.892L700.187 354.903C698.172 355.12 693.639 354.77 686.937 352.767C680.275 350.778 671.561 347.182 661.21 341.008C643.119 330.217 628.48 328.841 620.929 329.879C625.162 323.387 630.166 309.823 628.599 289.314C627.681 277.296 628.342 267.893 629.527 261.042C630.72 254.15 632.425 249.935 633.517 248.227L633.573 248.138L633.617 248.042C635.771 243.323 643.066 232.159 654.682 225.876C668.881 218.195 688.07 221.366 710.418 239.57C719.564 247.02 726.936 250.269 732.561 251.099C738.184 251.929 742.172 250.339 744.186 247.972L744.381 247.744L744.472 247.459C746.354 241.605 742.82 229.781 720.534 222.082C693.29 212.671 680.49 198.028 679.542 181.912C678.766 168.729 684.415 156.648 687.292 152.332L687.351 152.244L687.397 152.149C688.273 150.322 690.959 146.653 696.19 142.009C701.389 137.394 709.035 131.88 719.735 126.332C738.435 116.635 747.314 104.916 750.408 97.9493Z" fill="#F2F2F2"/>
<mask id="mask0_47_2" style="mask-type:alpha" maskUnits="userSpaceOnUse" x="610" y="88" width="284" height="270">
<path fill-rule="evenodd" clip-rule="evenodd" d="M752.502 93.6465C753.705 98.6097 761.401 112.106 782.735 123.168C793.635 128.82 801.489 134.472 806.89 139.266C812.185 143.965 815.19 147.902 816.349 150.254C819.487 155.006 825.361 167.656 824.542 181.588C823.49 199.472 809.29 214.829 781.534 224.418C760.447 231.702 758.456 241.949 759.382 245.721C762.184 248.356 772.243 251.413 789.075 236.69C811.177 217.355 831.558 212.653 847.605 220.618C860.106 226.823 868.17 238.203 870.738 243.285C872.204 245.459 874.129 250.022 875.581 256.952C877.06 264.019 878.067 273.643 877.562 285.911C876.574 309.923 884.47 323.303 888.181 326.811L894 332L886.919 330.024C882.014 328.605 866.477 328.585 846.284 341.613C835.966 348.269 827.16 352.282 820.318 354.59C813.61 356.853 808.701 357.508 806.084 357.346C800.401 357.711 786.504 356.53 774.816 348.902C759.814 339.111 753.532 319.161 758.988 290.306C761.114 279.059 760.183 271.38 758.262 266.466C756.441 261.81 753.794 259.742 752.037 259.201C748.335 260.42 740.711 267.523 745.613 289.244C752.079 317.889 746.501 338.048 731.852 348.36C720.44 356.394 706.592 358.062 700.901 357.897C698.291 358.15 693.362 357.668 686.578 355.642C679.659 353.575 670.718 349.875 660.173 343.585C639.534 331.274 624.008 331.839 619.156 333.43L610.5 337L616.932 330.79C620.517 327.153 627.938 313.504 626.107 289.542C625.172 277.3 625.84 267.646 627.071 260.531C628.278 253.555 630.042 248.927 631.431 246.703C633.819 241.533 641.479 229.878 653.754 223.238C669.511 214.714 690.044 218.698 712.812 237.244C721.712 244.493 728.592 247.407 733.5 248.132C738.146 248.818 740.929 247.545 742.199 246.249C743.142 242.499 741.193 232.22 720.054 224.918C692.298 215.329 678.099 199.972 677.047 182.088C676.227 168.156 682.102 155.506 685.239 150.754C686.398 148.402 689.403 144.465 694.699 139.766C700.099 134.972 707.953 129.32 718.854 123.668C740.188 112.606 747.883 99.1097 749.086 94.1465L750.908 88L752.502 93.6465ZM750.908 97.9493C754.198 104.966 763.094 116.363 781.354 125.832C792.053 131.38 799.699 136.894 804.898 141.509C810.13 146.153 812.815 149.822 813.692 151.649L813.738 151.744L813.796 151.832C816.673 156.148 822.322 168.229 821.547 181.412C820.599 197.528 807.798 212.171 780.554 221.582C758.269 229.281 754.734 241.105 756.616 246.959L756.716 247.27L756.937 247.512C761.109 252.078 773.344 254.436 791.05 238.948C812.745 219.97 831.81 216.128 846.271 223.305C858.1 229.177 865.782 240.078 868.101 244.718L868.148 244.813L868.208 244.899C869.358 246.568 871.211 250.72 872.644 257.566C874.069 264.371 875.061 273.746 874.565 285.788C873.699 306.835 879.464 320.361 883.975 326.505C876.251 325.877 861.941 327.941 844.657 339.092C834.529 345.626 825.947 349.525 819.359 351.747C812.731 353.984 808.213 354.493 806.192 354.347L806.087 354.339L805.981 354.347C800.806 354.702 787.515 353.608 776.456 346.39C762.937 337.566 756.581 319.186 761.936 290.864C764.133 279.24 763.239 270.958 761.056 265.374C758.89 259.836 755.383 256.826 752.326 256.179L751.989 256.108L751.654 256.191C745.686 257.674 737.496 266.906 742.687 289.905C749.033 318.022 743.327 336.614 730.125 345.907C719.327 353.509 706.082 355.069 700.898 354.895L700.792 354.892L700.687 354.903C698.672 355.12 694.139 354.77 687.437 352.767C680.775 350.778 672.061 347.182 661.71 341.008C643.619 330.217 628.98 328.841 621.429 329.879C625.662 323.387 630.666 309.823 629.099 289.314C628.181 277.296 628.842 267.893 630.027 261.042C631.22 254.15 632.925 249.935 634.017 248.227L634.073 248.138L634.117 248.042C636.271 243.323 643.566 232.159 655.182 225.876C669.381 218.195 688.57 221.366 710.918 239.57C720.064 247.02 727.436 250.269 733.061 251.099C738.684 251.929 742.672 250.339 744.686 247.972L744.881 247.744L744.972 247.459C746.854 241.605 743.32 229.781 721.034 222.082C693.79 212.671 680.99 198.028 680.042 181.912C679.266 168.729 684.915 156.648 687.792 152.332L687.851 152.244L687.897 152.149C688.773 150.322 691.459 146.653 696.69 142.009C701.889 137.394 709.535 131.88 720.235 126.332C738.935 116.635 747.814 104.916 750.908 97.9493Z" fill="#B5B5B5"/>
<path d="M750.908 97.9493C754.198 104.966 763.094 116.363 781.354 125.832C792.053 131.38 799.699 136.894 804.898 141.509C810.13 146.153 812.815 149.822 813.692 151.649L813.738 151.744L813.796 151.832C816.673 156.148 822.322 168.229 821.547 181.412C820.599 197.528 807.798 212.171 780.554 221.582C758.269 229.281 754.734 241.105 756.616 246.959L756.716 247.27L756.937 247.512C761.109 252.078 773.344 254.436 791.05 238.948C812.745 219.97 831.81 216.128 846.271 223.305C858.1 229.177 865.782 240.078 868.101 244.718L868.148 244.813L868.208 244.899C869.358 246.568 871.211 250.72 872.644 257.566C874.069 264.371 875.061 273.746 874.565 285.788C873.699 306.835 879.464 320.361 883.975 326.505C876.251 325.877 861.941 327.941 844.657 339.092C834.529 345.626 825.947 349.525 819.359 351.747C812.731 353.984 808.213 354.493 806.192 354.347L806.087 354.339L805.981 354.347C800.806 354.702 787.515 353.608 776.456 346.39C762.937 337.566 756.581 319.186 761.936 290.864C764.133 279.24 763.239 270.958 761.056 265.374C758.89 259.836 755.383 256.826 752.326 256.179L751.989 256.108L751.654 256.191C745.686 257.674 737.496 266.906 742.687 289.905C749.033 318.022 743.327 336.614 730.125 345.907C719.327 353.509 706.082 355.069 700.898 354.895L700.792 354.892L700.687 354.903C698.672 355.12 694.139 354.77 687.437 352.767C680.775 350.778 672.061 347.182 661.71 341.008C643.619 330.217 628.98 328.841 621.429 329.879C625.662 323.387 630.666 309.823 629.099 289.314C628.181 277.296 628.842 267.893 630.027 261.042C631.22 254.15 632.925 249.935 634.017 248.227L634.073 248.138L634.117 248.042C636.271 243.323 643.566 232.159 655.182 225.876C669.381 218.195 688.57 221.366 710.918 239.57C720.064 247.02 727.436 250.269 733.061 251.099C738.684 251.929 742.672 250.339 744.686 247.972L744.881 247.744L744.972 247.459C746.854 241.605 743.32 229.781 721.034 222.082C693.79 212.671 680.99 198.028 680.042 181.912C679.266 168.729 684.915 156.648 687.792 152.332L687.851 152.244L687.897 152.149C688.773 150.322 691.459 146.653 696.69 142.009C701.889 137.394 709.535 131.88 720.235 126.332C738.935 116.635 747.814 104.916 750.908 97.9493Z" fill="#F2F2F2"/>
</mask>
<g mask="url(#mask0_47_2)">
<g filter="url(#filter0_f_47_2)">
<path d="M751.5 188C790.161 215.32 802.001 236.276 806 283.237C762.112 295.571 738.386 294.252 697 283.237C706.002 235.021 716.694 213.055 751.5 188Z" fill="#DC477D"/>
<path d="M751.958 196.283C785.096 219.493 795.245 237.297 798.672 277.193C761.054 287.671 740.718 286.55 705.244 277.193C712.959 236.23 722.124 217.569 751.958 196.283Z" fill="#FFA800"/>
<path d="M751.5 206.407C777.166 224.298 785.026 238.022 787.681 268.775C758.545 276.852 742.794 275.988 715.319 268.775C721.295 237.2 728.393 222.815 751.5 206.407Z" fill="#FFE600"/>
</g>
</g>
<path d="M440.774 479.72C440.814 479.813 440.834 479.88 440.834 479.92C440.834 479.973 440.761 480 440.614 480H439.494C439.441 480 439.394 479.993 439.354 479.98C439.327 479.953 439.301 479.9 439.274 479.82C439.221 479.673 439.147 479.433 439.054 479.1C438.934 478.767 438.854 478.467 438.814 478.2C438.774 478 438.707 477.76 438.614 477.48C438.534 477.2 438.461 476.987 438.394 476.84C438.274 476.587 438.167 476.3 438.074 475.98L437.894 475.4C437.827 475.253 437.774 475.167 437.734 475.14C437.707 475.1 437.654 475.08 437.574 475.08C437.294 475.08 437.087 475.087 436.954 475.1L436.094 475.14C435.987 475.153 435.494 475.16 434.614 475.16H433.394H433.354C433.274 475.16 433.214 475.233 433.174 475.38L433.134 475.58L433.054 475.96C433.027 476.027 432.941 476.413 432.794 477.12C432.754 477.347 432.687 477.64 432.594 478C432.567 478.267 432.507 478.487 432.414 478.66C432.387 478.7 432.354 478.793 432.314 478.94C432.274 479.087 432.241 479.207 432.214 479.3C432.174 479.407 432.127 479.58 432.074 479.82C432.061 479.833 432.047 479.867 432.034 479.92C432.021 479.96 432.001 479.987 431.974 480C431.947 480 431.907 480 431.854 480H431.454C431.334 480 431.301 479.913 431.354 479.74C431.354 479.7 431.361 479.667 431.374 479.64C431.374 479.613 431.381 479.58 431.394 479.54C431.407 479.5 431.427 479.44 431.454 479.36L431.634 478.62C431.661 478.54 431.707 478.4 431.774 478.2C431.841 478 431.887 477.813 431.914 477.64C431.981 477.32 432.107 476.833 432.294 476.18L432.454 475.62C432.707 474.793 432.867 474.213 432.934 473.88L433.214 472.82C433.347 472.38 433.427 472.1 433.454 471.98C433.547 471.58 433.681 471.08 433.854 470.48L433.994 469.92L434.114 469.5C434.247 469.047 434.361 468.72 434.454 468.52C434.481 468.44 434.574 468.167 434.734 467.7C434.907 467.22 435.021 466.84 435.074 466.56C435.167 466.24 435.261 466 435.354 465.84C435.461 465.68 435.601 465.6 435.774 465.6C435.841 465.6 435.907 465.66 435.974 465.78C436.041 465.9 436.107 466.047 436.174 466.22C436.241 466.393 436.287 466.52 436.314 466.6C436.421 466.853 436.607 467.487 436.874 468.5L437.034 469.06C437.047 469.167 437.267 469.82 437.694 471.02L438.074 472.12L438.434 473.06C438.807 474.113 439.047 474.753 439.154 474.98C439.621 476.393 439.894 477.247 439.974 477.54C440.067 477.887 440.214 478.32 440.414 478.84C440.627 479.36 440.747 479.653 440.774 479.72ZM437.034 473.78C437.207 473.78 437.294 473.733 437.294 473.64C437.294 473.573 437.247 473.427 437.154 473.2C437.074 473 436.954 472.627 436.794 472.08C436.674 471.64 436.554 471.26 436.434 470.94C436.301 470.54 436.154 470.067 435.994 469.52C435.847 468.973 435.761 468.62 435.734 468.46C435.534 467.753 435.401 467.4 435.334 467.4C435.294 467.4 435.227 467.58 435.134 467.94L435.014 468.38C434.921 468.74 434.801 469.193 434.654 469.74C434.507 470.273 434.374 470.727 434.254 471.1C434.174 471.447 434.061 471.887 433.914 472.42C433.781 472.94 433.674 473.3 433.594 473.5C433.567 473.58 433.554 473.627 433.554 473.64C433.554 473.733 433.594 473.793 433.674 473.82C433.767 473.847 433.854 473.86 433.934 473.86C434.027 473.847 434.087 473.84 434.114 473.84L435.274 473.8C435.434 473.773 435.661 473.76 435.954 473.76L437.034 473.78ZM447.911 467.54C447.911 466.713 447.917 466.2 447.931 466C447.931 465.747 448.017 465.593 448.191 465.54C448.364 465.487 448.617 465.46 448.951 465.46C449.244 465.46 449.617 465.447 450.071 465.42C450.537 465.38 450.897 465.34 451.151 465.3C451.337 465.287 451.471 465.32 451.551 465.4C451.631 465.467 451.671 465.587 451.671 465.76C451.671 465.813 451.657 465.96 451.631 466.2C451.604 466.4 451.591 467.727 451.591 470.18V474.7C451.591 475.38 451.597 476.133 451.611 476.96C451.637 477.773 451.664 478.507 451.691 479.16C451.717 479.813 451.731 479.993 451.731 479.7C451.731 479.913 451.624 480.02 451.411 480.02C451.317 480.02 451.237 480.013 451.171 480C451.117 479.987 451.011 479.98 450.851 479.98C450.691 479.98 450.437 479.993 450.091 480.02C449.717 480.047 449.457 480.06 449.311 480.06C449.057 480.06 448.864 480.007 448.731 479.9C448.611 479.793 448.484 479.6 448.351 479.32L448.011 478.64C447.611 477.747 447.257 477.047 446.951 476.54C446.777 476.247 446.337 475.44 445.631 474.12L444.751 472.46V473.22V473.68C444.751 473.787 444.744 473.92 444.731 474.08C444.731 474.24 444.737 474.42 444.751 474.62C444.751 475.313 444.757 476.22 444.771 477.34C444.797 478.46 444.831 479.133 444.871 479.36C444.884 479.427 444.891 479.507 444.891 479.6C444.891 479.733 444.864 479.82 444.811 479.86C444.757 479.887 444.657 479.893 444.511 479.88C444.297 479.88 444.044 479.893 443.751 479.92C443.471 479.947 443.204 479.973 442.951 480C442.751 480.027 442.617 479.993 442.551 479.9C442.497 479.807 442.477 479.6 442.491 479.28C442.491 478.8 442.471 477.953 442.431 476.74C442.377 475.473 442.344 474.373 442.331 473.44C442.331 472.493 442.351 471.533 442.391 470.56C442.417 469.333 442.431 468.493 442.431 468.04C442.431 467.427 442.411 466.98 442.371 466.7C442.344 466.46 442.331 466.307 442.331 466.24C442.331 466 442.371 465.84 442.451 465.76C442.531 465.667 442.637 465.62 442.771 465.62C442.837 465.62 442.971 465.627 443.171 465.64C443.371 465.64 443.657 465.593 444.031 465.5C444.177 465.473 444.324 465.46 444.471 465.46C444.551 465.46 444.664 465.467 444.811 465.48C444.957 465.493 445.151 465.5 445.391 465.5C445.697 465.5 445.951 465.62 446.151 465.86C446.364 466.1 446.591 466.44 446.831 466.88L447.031 467.24C447.191 467.533 447.384 467.847 447.611 468.18L447.911 468.64V467.54ZM457.504 465.52C457.798 465.52 458.011 465.553 458.144 465.62C458.291 465.673 458.404 465.773 458.484 465.92C458.618 466.2 458.784 466.56 458.984 467L459.724 468.6L460.664 470.66C460.838 471.033 461.064 471.527 461.344 472.14C461.624 472.753 461.824 473.18 461.944 473.42C462.171 473.887 462.318 474.173 462.384 474.28L462.944 475.38L463.564 476.6L463.524 475.44L463.444 473.48V472.88C463.444 472.147 463.458 471.407 463.484 470.66C463.484 470.1 463.478 469.647 463.464 469.3L463.444 467.78L463.524 465.86C463.524 465.66 463.624 465.56 463.824 465.56C463.891 465.56 464.024 465.58 464.224 465.62C464.344 465.647 464.471 465.66 464.604 465.66C464.738 465.66 464.844 465.66 464.924 465.66C465.031 465.66 465.098 465.673 465.124 465.7C465.164 465.727 465.184 465.773 465.184 465.84C465.184 465.893 465.178 465.953 465.164 466.02C465.151 466.087 465.144 466.16 465.144 466.24L465.124 467.96L465.084 472L465.064 472.58C465.064 473.033 465.071 473.447 465.084 473.82C465.098 474.193 465.111 474.5 465.124 474.74C465.164 475.313 465.184 475.793 465.184 476.18C465.184 476.127 465.204 476.92 465.244 478.56L465.284 479.68V479.72C465.284 479.987 465.158 480.107 464.904 480.08C464.864 480.067 464.784 480.06 464.664 480.06L464.084 480.08H463.964C463.871 480.08 463.798 480.06 463.744 480.02C463.704 479.98 463.631 479.867 463.524 479.68C463.484 479.587 463.431 479.453 463.364 479.28C463.298 479.107 463.218 478.913 463.124 478.7C462.551 477.26 462.138 476.28 461.884 475.76C461.591 475.2 460.851 473.593 459.664 470.94C459.398 470.393 459.098 469.813 458.764 469.2L458.184 468.16L458.244 470.06L458.264 471.24C458.291 472.12 458.304 472.7 458.304 472.98C458.304 474.073 458.324 475.173 458.364 476.28L458.384 477.84C458.384 478.12 458.398 478.527 458.424 479.06L458.464 479.76V479.8C458.464 479.933 458.431 480.02 458.364 480.06C458.298 480.1 458.204 480.12 458.084 480.12L457.644 480.14C457.364 480.18 457.064 480.2 456.744 480.2C456.371 480.2 456.064 480.207 455.824 480.22L454.804 480.24C454.604 480.24 454.471 480.2 454.404 480.12C454.338 480.053 454.298 479.973 454.284 479.88C454.271 479.787 454.258 479.72 454.244 479.68C454.191 479.44 454.164 479.147 454.164 478.8C454.164 478.48 454.171 478.207 454.184 477.98C454.184 477.287 454.198 476.48 454.224 475.56C454.251 474.627 454.284 473.96 454.324 473.56L454.424 472.14C454.584 469.927 454.664 468.68 454.664 468.4C454.664 467.347 454.684 466.56 454.724 466.04C454.751 465.68 454.938 465.5 455.284 465.5C455.391 465.5 455.491 465.507 455.584 465.52C455.678 465.533 455.751 465.54 455.804 465.54L457.504 465.52ZM477.9 479.6C477.967 479.733 478 479.82 478 479.86C478 479.967 477.88 480.02 477.64 480.02H476.2C476.147 480.02 476.093 479.973 476.04 479.88C475.987 479.787 475.94 479.693 475.9 479.6C475.86 479.507 475.827 479.427 475.8 479.36C475.733 479.227 475.607 478.92 475.42 478.44C475.247 477.96 475.113 477.58 475.02 477.3C474.98 477.167 474.9 476.973 474.78 476.72C474.66 476.453 474.573 476.267 474.52 476.16C474.467 476 474.413 475.893 474.36 475.84C474.32 475.787 474.253 475.76 474.16 475.76C474.067 475.76 473.947 475.767 473.8 475.78C473.667 475.793 473.52 475.807 473.36 475.82C473.253 475.847 472.92 475.86 472.36 475.86C471.973 475.86 471.593 475.873 471.22 475.9C471.1 475.913 470.887 475.92 470.58 475.92L469.52 475.9C469.453 475.9 469.4 475.927 469.36 475.98C469.333 476.033 469.313 476.1 469.3 476.18C469.287 476.247 469.273 476.3 469.26 476.34L469.14 476.84C469.1 477.027 469.047 477.247 468.98 477.5C468.927 477.74 468.88 477.967 468.84 478.18L468.62 479.04L468.46 479.62C468.42 479.78 468.38 479.887 468.34 479.94C468.313 479.98 468.267 480 468.2 480H467.02C466.953 480 466.92 479.973 466.92 479.92C466.92 479.893 466.947 479.8 467 479.64C467.107 479.387 467.2 479.133 467.28 478.88C467.773 477.227 468.067 476.147 468.16 475.64C468.28 474.973 468.527 474.113 468.9 473.06C469.02 472.607 469.133 472.193 469.24 471.82C469.28 471.633 469.34 471.407 469.42 471.14C469.673 470.207 469.927 469.333 470.18 468.52L470.68 466.92C470.787 466.507 470.92 466.08 471.08 465.64C471.16 465.44 471.253 465.393 471.36 465.5C471.44 465.553 471.5 465.647 471.54 465.78C471.58 465.913 471.607 466.007 471.62 466.06C471.66 466.22 472.013 467.02 472.68 468.46C472.947 469.007 473.233 469.72 473.54 470.6C473.673 470.987 474.04 471.82 474.64 473.1C474.947 473.727 475.147 474.16 475.24 474.4C475.453 474.867 476.027 476 476.96 477.8L477.2 478.3C477.507 478.98 477.74 479.413 477.9 479.6ZM472.66 473C472.753 472.987 472.833 472.98 472.9 472.98C472.967 472.98 473.02 472.973 473.06 472.96C473.1 472.947 473.12 472.927 473.12 472.9C473.12 472.873 473.1 472.82 473.06 472.74C472.993 472.62 472.84 472.287 472.6 471.74C472.36 471.18 472.193 470.76 472.1 470.48C471.967 470.16 471.86 469.893 471.78 469.68C471.713 469.467 471.66 469.32 471.62 469.24C471.593 469.173 471.56 469.107 471.52 469.04C471.493 468.973 471.467 468.92 471.44 468.88C471.413 468.84 471.387 468.82 471.36 468.82C471.32 468.82 471.273 468.92 471.22 469.12C471.18 469.32 471.147 469.473 471.12 469.58C470.88 470.353 470.707 470.94 470.6 471.34C470.547 471.54 470.467 471.787 470.36 472.08C470.267 472.36 470.2 472.553 470.16 472.66C470.12 472.793 470.1 472.9 470.1 472.98C470.1 473.06 470.16 473.1 470.28 473.1C470.56 473.1 470.987 473.093 471.56 473.08C472.147 473.053 472.513 473.027 472.66 473ZM500.688 465.52C500.981 465.52 501.195 465.553 501.328 465.62C501.475 465.673 501.588 465.773 501.668 465.92C501.801 466.2 501.968 466.56 502.168 467L502.908 468.6L503.848 470.66C504.021 471.033 504.248 471.527 504.528 472.14C504.808 472.753 505.008 473.18 505.128 473.42C505.355 473.887 505.501 474.173 505.568 474.28L506.128 475.38L506.748 476.6L506.708 475.44L506.628 473.48V472.88C506.628 472.147 506.641 471.407 506.668 470.66C506.668 470.1 506.661 469.647 506.648 469.3L506.628 467.78L506.708 465.86C506.708 465.66 506.808 465.56 507.008 465.56C507.075 465.56 507.208 465.58 507.408 465.62C507.528 465.647 507.655 465.66 507.788 465.66C507.921 465.66 508.028 465.66 508.108 465.66C508.215 465.66 508.281 465.673 508.308 465.7C508.348 465.727 508.368 465.773 508.368 465.84C508.368 465.893 508.361 465.953 508.348 466.02C508.335 466.087 508.328 466.16 508.328 466.24L508.308 467.96L508.268 472L508.248 472.58C508.248 473.033 508.255 473.447 508.268 473.82C508.281 474.193 508.295 474.5 508.308 474.74C508.348 475.313 508.368 475.793 508.368 476.18C508.368 476.127 508.388 476.92 508.428 478.56L508.468 479.68V479.72C508.468 479.987 508.341 480.107 508.088 480.08C508.048 480.067 507.968 480.06 507.848 480.06L507.268 480.08H507.148C507.055 480.08 506.981 480.06 506.928 480.02C506.888 479.98 506.815 479.867 506.708 479.68C506.668 479.587 506.615 479.453 506.548 479.28C506.481 479.107 506.401 478.913 506.308 478.7C505.735 477.26 505.321 476.28 505.068 475.76C504.775 475.2 504.035 473.593 502.848 470.94C502.581 470.393 502.281 469.813 501.948 469.2L501.368 468.16L501.428 470.06L501.448 471.24C501.475 472.12 501.488 472.7 501.488 472.98C501.488 474.073 501.508 475.173 501.548 476.28L501.568 477.84C501.568 478.12 501.581 478.527 501.608 479.06L501.648 479.76V479.8C501.648 479.933 501.615 480.02 501.548 480.06C501.481 480.1 501.388 480.12 501.268 480.12L500.828 480.14C500.548 480.18 500.248 480.2 499.928 480.2C499.555 480.2 499.248 480.207 499.008 480.22L497.988 480.24C497.788 480.24 497.655 480.2 497.588 480.12C497.521 480.053 497.481 479.973 497.468 479.88C497.455 479.787 497.441 479.72 497.428 479.68C497.375 479.44 497.348 479.147 497.348 478.8C497.348 478.48 497.355 478.207 497.368 477.98C497.368 477.287 497.381 476.48 497.408 475.56C497.435 474.627 497.468 473.96 497.508 473.56L497.608 472.14C497.768 469.927 497.848 468.68 497.848 468.4C497.848 467.347 497.868 466.56 497.908 466.04C497.935 465.68 498.121 465.5 498.468 465.5C498.575 465.5 498.675 465.507 498.768 465.52C498.861 465.533 498.935 465.54 498.988 465.54L500.688 465.52ZM511.544 465.9C511.717 465.913 511.884 465.92 512.044 465.92C512.217 465.907 512.364 465.9 512.484 465.9C512.777 465.9 512.99 465.907 513.124 465.92C513.284 465.933 513.397 465.967 513.464 466.02C513.53 466.073 513.564 466.147 513.564 466.24C513.564 466.307 513.557 466.38 513.544 466.46C513.53 466.54 513.517 466.613 513.504 466.68C513.357 467.813 513.277 468.98 513.264 470.18C513.25 470.527 513.244 471.06 513.244 471.78L513.264 474.2C513.277 474.4 513.284 474.607 513.284 474.82L513.304 475.62C513.33 476.313 513.344 476.827 513.344 477.16C513.344 477.413 513.337 477.567 513.324 477.62C513.31 477.673 513.304 477.827 513.304 478.08L513.324 479.18C513.337 479.34 513.344 479.54 513.344 479.78C513.357 479.953 513.304 480.06 513.184 480.1C513.077 480.153 512.93 480.173 512.744 480.16H510.924C510.724 480.173 510.597 480.127 510.544 480.02C510.49 479.927 510.457 479.767 510.444 479.54C510.417 479.447 510.43 479.2 510.484 478.8C510.537 478.427 510.564 478.107 510.564 477.84C510.564 477.747 510.61 476.847 510.704 475.14C510.784 473.887 510.824 473.2 510.824 473.08L510.864 471.12L510.904 469.3L510.944 468.22L510.984 467.5V466.66C510.984 466.14 511.117 465.88 511.384 465.88C511.45 465.88 511.504 465.887 511.544 465.9ZM517.987 465.9L520.167 465.92C521.554 465.92 522.454 465.94 522.867 465.98C523.627 466.047 524.167 466.08 524.487 466.08C524.7 466.08 524.84 466.073 524.907 466.06L525.047 466.04C525.14 466.04 525.194 466.06 525.207 466.1C525.234 466.127 525.24 466.167 525.227 466.22C525.227 466.26 525.227 466.293 525.227 466.32C525.227 466.44 525.2 466.687 525.147 467.06C525.134 467.193 525.074 467.327 524.967 467.46C524.874 467.593 524.72 467.78 524.507 468.02C524.52 468.007 524.367 468.18 524.047 468.54C523.527 469.233 522.84 470.22 521.987 471.5C521.8 471.793 521.054 472.793 519.747 474.5L519.427 474.92C519.134 475.32 518.7 475.887 518.127 476.62C518.007 476.753 517.84 477 517.627 477.36L517.327 477.84L516.807 478.7C517.434 478.713 518.28 478.72 519.347 478.72L522.127 478.74L522.947 478.78L523.907 478.82L525.227 478.8H525.267C525.374 478.8 525.42 478.833 525.407 478.9C525.407 478.953 525.407 478.987 525.407 479L525.427 479.64C525.427 479.8 525.34 479.88 525.167 479.88C525.127 479.88 525.027 479.867 524.867 479.84C524.48 479.773 524.054 479.753 523.587 479.78L521.647 479.82L518.927 479.88C516.94 479.88 515.78 479.9 515.447 479.94H515.327C515.194 479.94 515.114 479.913 515.087 479.86C515.06 479.807 515.047 479.753 515.047 479.7C515.06 479.647 515.067 479.607 515.067 479.58C515.067 479.38 515.187 479.107 515.427 478.76C515.627 478.493 515.767 478.3 515.847 478.18C517.18 476.367 517.994 475.28 518.287 474.92L519.667 473.16C520.84 471.667 521.534 470.787 521.747 470.52C522.187 469.987 522.7 469.267 523.287 468.36L524.087 467.1H522.887C521.967 467.1 521.38 467.093 521.127 467.08C520.714 467.08 520.327 467.073 519.967 467.06C518.767 467.033 517.767 467.02 516.967 467.02C516.394 467.02 515.987 467.033 515.747 467.06C515.24 467.1 514.987 467.007 514.987 466.78C514.987 466.513 515.014 466.253 515.067 466C515.08 465.88 515.16 465.82 515.307 465.82C515.374 465.82 515.487 465.84 515.647 465.88C515.807 465.907 515.934 465.92 516.027 465.92L517.987 465.9ZM530.957 472.16L531.697 472.18C532.337 472.207 532.784 472.22 533.037 472.22C534.077 472.22 534.871 472.213 535.417 472.2C536.071 472.2 536.571 472.193 536.917 472.18V471.58L536.897 470.48C536.897 469.973 536.924 468.933 536.977 467.36L537.017 465.96C537.031 465.84 537.104 465.78 537.237 465.78L537.457 465.8C537.511 465.813 537.611 465.82 537.757 465.82C537.917 465.82 538.031 465.833 538.097 465.86C538.231 465.9 538.297 465.967 538.297 466.06L538.257 466.22C538.244 466.313 538.224 466.493 538.197 466.76C538.171 467.013 538.131 467.407 538.077 467.94C538.037 468.34 538.004 469.253 537.977 470.68C537.951 472.093 537.937 473.2 537.937 474C537.937 474.56 537.911 475.533 537.857 476.92L537.817 478.24L537.797 479.04C537.797 479.24 537.811 479.433 537.837 479.62L537.857 479.74C537.857 479.82 537.824 479.867 537.757 479.88C537.704 479.88 537.671 479.88 537.657 479.88C537.524 479.907 537.284 479.92 536.937 479.92C536.831 479.92 536.777 479.853 536.777 479.72L536.797 476.8C536.784 476.587 536.777 476.367 536.777 476.14C536.791 475.9 536.797 475.687 536.797 475.5V474.66V473.18L535.177 473.22C534.604 473.233 533.831 473.24 532.857 473.24H530.977C530.471 473.24 530.077 473.233 529.797 473.22C529.797 473.447 529.791 473.62 529.777 473.74C529.751 474.167 529.737 474.573 529.737 474.96L529.717 477.12C529.717 478.173 529.751 478.867 529.817 479.2C529.844 479.36 529.857 479.46 529.857 479.5C529.857 479.687 529.804 479.807 529.697 479.86C529.604 479.9 529.497 479.92 529.377 479.92C529.271 479.907 529.197 479.9 529.157 479.9C528.691 479.873 528.157 479.893 527.557 479.96C527.331 479.987 527.191 479.933 527.137 479.8C527.097 479.667 527.077 479.48 527.077 479.24C527.091 479 527.097 478.82 527.097 478.7L527.057 471.78L527.097 466.6C527.097 466.333 527.124 466.167 527.177 466.1C527.244 466.02 527.344 465.98 527.477 465.98L527.917 466C527.984 466 528.137 465.987 528.377 465.96C528.444 465.947 528.557 465.94 528.717 465.94L529.237 465.96C529.344 465.973 529.491 465.98 529.677 465.98C529.824 465.98 529.911 466.027 529.937 466.12C529.977 466.2 529.991 466.287 529.977 466.38C529.977 466.473 529.977 466.54 529.977 466.58C529.977 467.193 529.951 467.987 529.897 468.96L529.817 470.94L529.757 472.12L530.957 472.16ZM544.87 465.72C546.203 465.72 547.203 466.107 547.87 466.88C548.537 467.64 548.963 468.547 549.15 469.6C549.337 470.64 549.43 471.82 549.43 473.14C549.43 474.207 549.27 475.307 548.95 476.44C548.63 477.56 548.137 478.507 547.47 479.28C546.803 480.053 545.983 480.44 545.01 480.44C543.103 480.44 541.837 479.64 541.21 478.04C540.583 476.427 540.27 474.7 540.27 472.86C540.27 471.087 540.51 469.667 540.99 468.6C541.483 467.533 542.077 466.787 542.77 466.36C543.477 465.933 544.177 465.72 544.87 465.72ZM544.85 475.36C545.21 475.36 545.477 475.16 545.65 474.76C545.823 474.36 545.91 473.88 545.91 473.32C545.91 472.787 545.823 472.32 545.65 471.92C545.49 471.52 545.27 471.32 544.99 471.32C544.657 471.32 544.403 471.553 544.23 472.02C544.07 472.473 543.99 472.967 543.99 473.5C543.99 474.047 544.043 474.493 544.15 474.84C544.257 475.187 544.49 475.36 544.85 475.36ZM557.149 467.54C557.149 466.713 557.156 466.2 557.169 466C557.169 465.747 557.256 465.593 557.429 465.54C557.602 465.487 557.856 465.46 558.189 465.46C558.482 465.46 558.856 465.447 559.309 465.42C559.776 465.38 560.136 465.34 560.389 465.3C560.576 465.287 560.709 465.32 560.789 465.4C560.869 465.467 560.909 465.587 560.909 465.76C560.909 465.813 560.896 465.96 560.869 466.2C560.842 466.4 560.829 467.727 560.829 470.18V474.7C560.829 475.38 560.836 476.133 560.849 476.96C560.876 477.773 560.902 478.507 560.929 479.16C560.956 479.813 560.969 479.993 560.969 479.7C560.969 479.913 560.862 480.02 560.649 480.02C560.556 480.02 560.476 480.013 560.409 480C560.356 479.987 560.249 479.98 560.089 479.98C559.929 479.98 559.676 479.993 559.329 480.02C558.956 480.047 558.696 480.06 558.549 480.06C558.296 480.06 558.102 480.007 557.969 479.9C557.849 479.793 557.722 479.6 557.589 479.32L557.249 478.64C556.849 477.747 556.496 477.047 556.189 476.54C556.016 476.247 555.576 475.44 554.869 474.12L553.989 472.46V473.22V473.68C553.989 473.787 553.982 473.92 553.969 474.08C553.969 474.24 553.976 474.42 553.989 474.62C553.989 475.313 553.996 476.22 554.009 477.34C554.036 478.46 554.069 479.133 554.109 479.36C554.122 479.427 554.129 479.507 554.129 479.6C554.129 479.733 554.102 479.82 554.049 479.86C553.996 479.887 553.896 479.893 553.749 479.88C553.536 479.88 553.282 479.893 552.989 479.92C552.709 479.947 552.442 479.973 552.189 480C551.989 480.027 551.856 479.993 551.789 479.9C551.736 479.807 551.716 479.6 551.729 479.28C551.729 478.8 551.709 477.953 551.669 476.74C551.616 475.473 551.582 474.373 551.569 473.44C551.569 472.493 551.589 471.533 551.629 470.56C551.656 469.333 551.669 468.493 551.669 468.04C551.669 467.427 551.649 466.98 551.609 466.7C551.582 466.46 551.569 466.307 551.569 466.24C551.569 466 551.609 465.84 551.689 465.76C551.769 465.667 551.876 465.62 552.009 465.62C552.076 465.62 552.209 465.627 552.409 465.64C552.609 465.64 552.896 465.593 553.269 465.5C553.416 465.473 553.562 465.46 553.709 465.46C553.789 465.46 553.902 465.467 554.049 465.48C554.196 465.493 554.389 465.5 554.629 465.5C554.936 465.5 555.189 465.62 555.389 465.86C555.602 466.1 555.829 466.44 556.069 466.88L556.269 467.24C556.429 467.533 556.622 467.847 556.849 468.18L557.149 468.64V467.54ZM564.083 465.9C564.256 465.913 564.423 465.92 564.583 465.92C564.756 465.907 564.903 465.9 565.023 465.9C565.316 465.9 565.529 465.907 565.663 465.92C565.823 465.933 565.936 465.967 566.003 466.02C566.069 466.073 566.103 466.147 566.103 466.24C566.103 466.307 566.096 466.38 566.083 466.46C566.069 466.54 566.056 466.613 566.043 466.68C565.896 467.813 565.816 468.98 565.803 470.18C565.789 470.527 565.783 471.06 565.783 471.78L565.803 474.2C565.816 474.4 565.823 474.607 565.823 474.82L565.843 475.62C565.869 476.313 565.883 476.827 565.883 477.16C565.883 477.413 565.876 477.567 565.863 477.62C565.849 477.673 565.843 477.827 565.843 478.08L565.863 479.18C565.876 479.34 565.883 479.54 565.883 479.78C565.896 479.953 565.843 480.06 565.723 480.1C565.616 480.153 565.469 480.173 565.283 480.16H563.463C563.263 480.173 563.136 480.127 563.083 480.02C563.029 479.927 562.996 479.767 562.983 479.54C562.956 479.447 562.969 479.2 563.023 478.8C563.076 478.427 563.103 478.107 563.103 477.84C563.103 477.747 563.149 476.847 563.243 475.14C563.323 473.887 563.363 473.2 563.363 473.08L563.403 471.12L563.443 469.3L563.483 468.22L563.523 467.5V466.66C563.523 466.14 563.656 465.88 563.923 465.88C563.989 465.88 564.043 465.887 564.083 465.9Z" fill="white"/>
<path d="M900.95 465C901.763 465 902.63 465.22 903.55 465.66C904.47 466.087 905.277 466.873 905.97 468.02C906.663 469.167 907.01 470.727 907.01 472.7C907.01 474.5 906.577 475.867 905.71 476.8C904.857 477.72 903.957 478.313 903.01 478.58C902.063 478.833 901.277 478.96 900.65 478.96L899.01 478.98C898.717 478.993 898.357 479 897.93 479C897.677 479 897.55 478.773 897.55 478.32L897.57 477.8L897.53 476.8L897.51 475.9L897.49 475.3C897.437 474.607 897.41 473.82 897.41 472.94C897.41 472.42 897.437 471.733 897.49 470.88C897.543 470.027 897.57 469.327 897.57 468.78L897.55 466.1C897.537 465.887 897.53 465.647 897.53 465.38C897.53 465.233 897.623 465.147 897.81 465.12C898.01 465.08 898.217 465.067 898.43 465.08C898.643 465.08 898.79 465.08 898.87 465.08L899.59 465.04C900.15 465.013 900.603 465 900.95 465ZM900.99 474.72C901.35 474.547 901.683 474.307 901.99 474C902.657 473.36 902.99 472.6 902.99 471.72C902.99 470.88 902.67 470.207 902.03 469.7C901.75 469.487 901.437 469.327 901.09 469.22C901.117 469.513 901.13 469.74 901.13 469.9C901.13 470.153 901.117 470.52 901.09 471C901.063 471.453 901.05 471.787 901.05 472C901.05 472.347 901.037 472.907 901.01 473.68C900.997 473.907 900.99 474.253 900.99 474.72ZM917.353 465.92C917.353 466.227 917.326 466.38 917.273 466.38C917.193 466.38 917.1 466.373 916.993 466.36C916.9 466.333 916.78 466.32 916.633 466.32H913.433L910.953 466.3C910.873 466.3 910.573 466.32 910.053 466.36L909.593 466.4L909.553 466.94C909.54 467.14 909.533 467.453 909.533 467.88C909.533 468.093 909.546 468.373 909.573 468.72C909.6 469.04 909.613 469.273 909.613 469.42V470.22C909.613 470.433 909.62 470.6 909.633 470.72C909.753 470.733 909.933 470.74 910.173 470.74H910.973C911.053 470.74 911.213 470.727 911.453 470.7C911.8 470.673 912.1 470.66 912.353 470.66C912.46 470.66 912.833 470.68 913.473 470.72L913.913 470.74C914.02 470.74 914.173 470.733 914.373 470.72C914.573 470.693 914.766 470.68 914.953 470.68L915.613 470.7C915.96 470.727 916.2 470.74 916.333 470.74C916.48 470.74 916.58 470.733 916.633 470.72L916.753 470.7C916.846 470.7 916.913 470.733 916.953 470.8C916.993 470.853 917.006 470.907 916.993 470.96C916.98 471.053 916.973 471.173 916.973 471.32C916.973 471.453 916.966 471.573 916.953 471.68C916.94 471.787 916.92 471.853 916.893 471.88C916.866 471.893 916.786 471.9 916.653 471.9L915.853 471.82C914.853 471.727 914.2 471.68 913.893 471.68C912.76 471.68 911.926 471.7 911.393 471.74C911.18 471.767 910.946 471.78 910.693 471.78C910.44 471.78 910.28 471.78 910.213 471.78C909.96 471.78 909.773 471.773 909.653 471.76L909.593 472.08C909.566 472.32 909.553 472.533 909.553 472.72C909.553 472.88 909.566 473.067 909.593 473.28C909.62 473.493 909.633 473.68 909.633 473.84L909.653 476.22L909.633 477.22C909.62 477.34 909.613 477.507 909.613 477.72C909.786 477.733 910.04 477.74 910.373 477.74C910.653 477.753 911.086 477.76 911.673 477.76L912.753 477.78C912.98 477.793 913.326 477.8 913.793 477.8C914.073 477.8 914.44 477.787 914.893 477.76L915.733 477.74C916.053 477.74 916.32 477.747 916.533 477.76C916.746 477.773 916.906 477.78 917.013 477.78C917.12 477.78 917.18 477.8 917.193 477.84C917.22 477.88 917.233 477.967 917.233 478.1C917.233 478.193 917.226 478.293 917.213 478.4C917.2 478.493 917.193 478.6 917.193 478.72C917.193 478.813 917.16 478.88 917.093 478.92C917.026 478.947 916.92 478.96 916.773 478.96C916.626 478.96 916.506 478.953 916.413 478.94C916.053 478.9 915.326 478.88 914.233 478.88C913.566 478.88 913.086 478.887 912.793 478.9C912.566 478.913 912.193 478.92 911.673 478.92L909.813 478.9C909.6 478.887 909.346 478.88 909.053 478.88C908.866 478.88 908.74 478.86 908.673 478.82C908.62 478.767 908.593 478.687 908.593 478.58L908.613 478.26C908.626 478.207 908.633 478.147 908.633 478.08C908.633 478.04 908.626 477.947 908.613 477.8C908.6 477.64 908.593 477.353 908.593 476.94C908.593 476.54 908.58 475.887 908.553 474.98C908.513 474.233 908.493 473.513 908.493 472.82C908.493 472.527 908.526 471.68 908.593 470.28C908.606 470 908.62 469.72 908.633 469.44C908.646 469.16 908.653 468.907 908.653 468.68C908.653 467.133 908.633 466.113 908.593 465.62C908.553 465.3 908.746 465.14 909.173 465.14C909.28 465.14 909.453 465.153 909.693 465.18C909.906 465.207 910.066 465.22 910.173 465.22L911.433 465.18C912.34 465.127 913.04 465.1 913.533 465.1C914.106 465.1 914.913 465.113 915.953 465.14C916.286 465.153 916.64 465.16 917.013 465.16C917.173 465.16 917.273 465.2 917.313 465.28C917.353 465.36 917.366 465.447 917.353 465.54C917.353 465.62 917.353 465.673 917.353 465.7V465.92ZM923.028 476.38C923.121 476.1 923.261 475.7 923.448 475.18C923.648 474.647 923.808 474.247 923.928 473.98C924.061 473.74 924.274 473.187 924.568 472.32C924.861 471.44 925.101 470.707 925.288 470.12L926.128 468.04C926.408 467.387 926.574 466.98 926.628 466.82C926.748 466.54 926.874 466.173 927.008 465.72L927.208 465.16C927.234 465.053 927.268 464.987 927.308 464.96C927.361 464.933 927.434 464.94 927.528 464.98C927.608 465.007 927.701 465.02 927.808 465.02C927.928 465.02 928.001 465.02 928.028 465.02C928.108 465.02 928.148 465.04 928.148 465.08C928.148 465.107 928.121 465.173 928.068 465.28C927.801 465.987 927.574 466.5 927.388 466.82C927.254 467.06 926.934 467.913 926.428 469.38C925.921 470.833 925.594 471.793 925.448 472.26C925.434 472.287 925.128 473.14 924.528 474.82C924.168 475.833 923.948 476.447 923.868 476.66C923.721 477.02 923.561 477.44 923.388 477.92C923.228 478.387 923.134 478.647 923.108 478.7C923.081 478.807 923.048 478.873 923.008 478.9C922.981 478.927 922.928 478.94 922.848 478.94C922.781 478.94 922.734 478.933 922.708 478.92C922.681 478.893 922.661 478.867 922.648 478.84C922.648 478.813 922.641 478.793 922.628 478.78L922.308 477.78C921.934 476.567 921.701 475.833 921.608 475.58L920.248 471.74C920.261 471.767 920.088 471.213 919.728 470.08C919.501 469.28 919.288 468.587 919.088 468C919.021 467.853 918.874 467.34 918.648 466.46L918.388 465.44C918.334 465.293 918.308 465.173 918.308 465.08C918.308 465.027 918.321 464.993 918.348 464.98C918.374 464.967 918.401 464.96 918.428 464.96C918.454 464.947 918.474 464.94 918.488 464.94H919.188H919.248C919.368 464.94 919.448 464.96 919.488 465C919.528 465.04 919.554 465.093 919.568 465.16C919.581 465.213 919.594 465.253 919.608 465.28C919.688 465.467 919.814 465.947 919.988 466.72C920.108 467.213 920.354 468.033 920.728 469.18C920.794 469.393 920.921 469.8 921.108 470.4C921.308 471 921.441 471.44 921.508 471.72C921.681 472.427 921.921 473.24 922.228 474.16L922.448 474.78C922.608 475.287 922.748 475.7 922.868 476.02C922.961 476.233 923.014 476.353 923.028 476.38ZM937.677 467.06C937.677 467.327 937.657 467.573 937.617 467.8C937.604 468 937.511 468.1 937.337 468.1C937.284 468.1 937.211 468.087 937.117 468.06C937.024 468.033 936.951 468.013 936.897 468C936.697 467.96 936.117 467.94 935.157 467.94L934.397 467.92C934.224 467.907 933.971 467.9 933.637 467.9C933.397 467.9 933.217 467.907 933.097 467.92C932.697 467.947 932.344 467.96 932.037 467.96L930.977 467.94C930.871 467.94 930.811 467.967 930.797 468.02C930.784 468.06 930.777 468.167 930.777 468.34C930.777 468.58 930.771 468.787 930.757 468.96C930.731 469.493 930.717 469.927 930.717 470.26V471.44C930.717 471.72 930.724 471.933 930.737 472.08C930.844 472.093 931.024 472.1 931.277 472.1C931.504 472.113 931.971 472.12 932.677 472.12C932.971 472.12 933.397 472.107 933.957 472.08C934.384 472.053 934.664 472.04 934.797 472.04C934.984 472.04 935.171 472.053 935.357 472.08C935.544 472.093 935.684 472.1 935.777 472.1C935.951 472.1 936.037 472.18 936.037 472.34C936.037 472.393 936.031 472.473 936.017 472.58C936.004 472.673 935.997 472.8 935.997 472.96L936.017 474.02C936.017 474.14 936.004 474.227 935.977 474.28C935.951 474.32 935.904 474.34 935.837 474.34C935.797 474.34 935.737 474.333 935.657 474.32C935.591 474.293 935.531 474.28 935.477 474.28C935.357 474.28 935.131 474.273 934.797 474.26C934.477 474.247 934.037 474.24 933.477 474.24C932.877 474.24 932.357 474.267 931.917 474.32C931.477 474.373 931.211 474.4 931.117 474.4C930.971 474.4 930.884 474.393 930.857 474.38C930.791 474.38 930.751 474.373 930.737 474.36V476.36C930.831 476.36 930.904 476.353 930.957 476.34L931.517 476.32L933.877 476.3C934.357 476.3 934.737 476.307 935.017 476.32L936.397 476.34L937.237 476.32C937.397 476.32 937.504 476.36 937.557 476.44C937.611 476.507 937.637 476.607 937.637 476.74L937.617 477.14L937.597 478.54C937.597 478.753 937.551 478.887 937.457 478.94C937.364 478.98 937.231 479 937.057 479C936.884 478.987 936.744 478.98 936.637 478.98C936.064 478.98 935.571 478.973 935.157 478.96L933.117 478.94C932.957 478.94 932.157 478.96 930.717 479L929.957 479.02L929.837 479.04C929.757 479.04 929.711 479.02 929.697 478.98C929.684 478.927 929.677 478.833 929.677 478.7C929.664 478.553 929.657 478.307 929.657 477.96C929.657 477.853 929.651 477.74 929.637 477.62C929.624 477.487 929.617 477.313 929.617 477.1V474.36C929.617 474.093 929.624 473.833 929.637 473.58C929.664 473.327 929.677 473.14 929.677 473.02C929.731 472.407 929.757 471.82 929.757 471.26C929.757 470.567 929.737 470.02 929.697 469.62C929.671 469.167 929.657 468.753 929.657 468.38C929.657 467.54 929.677 466.56 929.717 465.44C929.717 465.267 929.751 465.153 929.817 465.1C929.884 465.033 929.977 465 930.097 465L930.397 465.02C930.517 465.02 930.711 465.033 930.977 465.06C931.244 465.073 931.571 465.08 931.957 465.08C932.397 465.08 932.917 465.047 933.517 464.98C934.237 464.927 934.717 464.9 934.957 464.9C935.504 464.9 936.004 464.92 936.457 464.96L937.177 464.98C937.351 464.98 937.464 465.02 937.517 465.1C937.571 465.18 937.597 465.327 937.597 465.54C937.597 465.66 937.611 465.867 937.637 466.16C937.664 466.507 937.677 466.807 937.677 467.06ZM943.905 467.08C943.852 468.173 943.825 468.993 943.825 469.54L943.865 472.56C943.879 473.04 943.885 473.533 943.885 474.04L943.845 476.22L943.825 476.62L943.845 477.18L943.885 477.88L946.745 477.98L949.125 478H949.165C949.245 478 949.292 478.013 949.305 478.04C949.319 478.067 949.319 478.107 949.305 478.16C949.305 478.2 949.305 478.233 949.305 478.26C949.292 478.313 949.292 478.413 949.305 478.56C949.332 478.707 949.345 478.84 949.345 478.96C949.345 479.053 949.312 479.113 949.245 479.14C949.179 479.167 949.092 479.173 948.985 479.16C948.892 479.16 948.819 479.16 948.765 479.16L947.705 479.1C946.772 479.02 946.112 478.98 945.725 478.98C945.299 478.98 944.219 479.02 942.485 479.1L940.665 479.16C940.372 479.16 940.225 479.027 940.225 478.76V477.2L940.305 470.5C940.305 469.993 940.272 469.073 940.205 467.74L940.125 465.28C940.125 465.053 940.212 464.94 940.385 464.94C940.452 464.94 940.565 464.96 940.725 465C940.885 465.04 941.012 465.06 941.105 465.06C941.479 465.113 941.925 465.14 942.445 465.14C942.805 465.14 943.145 465.12 943.465 465.08C943.665 465.053 943.805 465.067 943.885 465.12C943.965 465.173 944.005 465.26 944.005 465.38C944.005 465.473 943.992 465.573 943.965 465.68C943.952 465.773 943.945 465.88 943.945 466L943.905 467.08ZM958.094 465.04C958.894 465.573 959.534 466.293 960.014 467.2C960.507 468.107 960.847 468.993 961.034 469.86C961.234 470.713 961.334 471.387 961.334 471.88C961.334 472.707 961.2 473.667 960.934 474.76C960.68 475.853 960.127 476.873 959.274 477.82C958.42 478.753 957.187 479.22 955.574 479.22C953.36 479.22 951.787 477.933 950.854 475.36C950.44 474.2 950.207 472.907 950.154 471.48C950.154 470.307 950.4 469.193 950.894 468.14C951.387 467.073 952.034 466.22 952.834 465.58C953.647 464.94 954.48 464.62 955.334 464.62C956.107 464.62 956.68 464.64 957.054 464.68C957.44 464.72 957.787 464.84 958.094 465.04ZM955.474 478.1C956.887 478.1 957.94 477.513 958.634 476.34C959.327 475.153 959.674 473.667 959.674 471.88C959.674 470.787 959.507 469.78 959.174 468.86C958.854 467.927 958.394 467.187 957.794 466.64C957.207 466.08 956.527 465.8 955.754 465.8C955.687 465.8 955.507 465.8 955.214 465.8C954.934 465.8 954.687 465.847 954.474 465.94C954.26 466.033 954.067 466.173 953.894 466.36C953.454 466.8 953.08 467.207 952.774 467.58C952.48 467.94 952.18 468.48 951.874 469.2C951.58 469.92 951.434 470.753 951.434 471.7C951.434 472.82 951.567 473.867 951.834 474.84C952.114 475.8 952.554 476.587 953.154 477.2C953.754 477.8 954.527 478.1 955.474 478.1ZM971.907 465.98C971.96 466.047 972.107 466.227 972.347 466.52C972.6 466.813 972.794 467.14 972.927 467.5C973.06 467.86 973.127 468.247 973.127 468.66C973.127 469.767 972.8 470.653 972.147 471.32C971.507 471.987 970.694 472.493 969.707 472.84C968.64 473.2 967.5 473.387 966.287 473.4L966.247 475.58L966.207 478.4C966.207 478.8 966.047 479 965.727 479C965.647 479 965.567 478.993 965.487 478.98C965.407 478.967 965.34 478.96 965.287 478.96L964.527 479L963.747 479.04C963.6 479.04 963.5 478.987 963.447 478.88C963.394 478.773 963.367 478.613 963.367 478.4C963.367 478.333 963.367 478.207 963.367 478.02C963.38 477.833 963.387 477.553 963.387 477.18C963.427 475.14 963.447 474.107 963.447 474.08V468.6C963.447 468.067 963.474 467.487 963.527 466.86L963.607 465.54C963.607 465.327 963.627 465.207 963.667 465.18C963.72 465.14 963.827 465.12 963.987 465.12C964.094 465.12 964.414 465.093 964.947 465.04C965.64 464.96 966.194 464.92 966.607 464.92C967.727 464.92 968.58 464.94 969.167 464.98C969.767 465.007 970.3 465.1 970.767 465.26C971.247 465.407 971.627 465.647 971.907 465.98ZM970.227 471.8C970.707 471.573 971.06 471.273 971.287 470.9C971.514 470.513 971.627 470 971.627 469.36C971.627 468.853 971.574 468.327 971.467 467.78C971.36 467.233 971.06 466.813 970.567 466.52C970.074 466.227 969.48 466.033 968.787 465.94C968.427 465.887 968 465.86 967.507 465.86C967.294 465.86 966.934 465.873 966.427 465.9L966.307 472.36C966.827 472.373 967.327 472.353 967.807 472.3C968.9 472.22 969.707 472.053 970.227 471.8ZM976.961 465.96C977.027 466.32 977.181 466.82 977.421 467.46C977.674 468.1 977.914 468.66 978.141 469.14C978.327 469.46 978.574 469.98 978.881 470.7C979.201 471.407 979.427 471.967 979.561 472.38C979.641 472.593 979.754 472.86 979.901 473.18L980.201 473.9L980.621 474.84C981.007 474.08 981.287 473.527 981.461 473.18L982.761 470.58L983.661 468.78C984.127 467.82 984.441 467.2 984.601 466.92C984.854 466.4 985.121 465.92 985.401 465.48C985.681 465.027 985.881 464.8 986.001 464.8C986.107 464.8 986.161 464.887 986.161 465.06C986.161 465.22 986.127 465.433 986.061 465.7L985.981 466.2C985.927 466.56 985.901 468.16 985.901 471C985.901 471.627 985.881 472.387 985.841 473.28C985.814 474.173 985.787 474.767 985.761 475.06C985.734 475.407 985.721 475.92 985.721 476.6L985.741 478.54V478.64C985.741 478.8 985.701 478.867 985.621 478.84H985.581C985.514 478.84 985.434 478.847 985.341 478.86C985.261 478.873 985.174 478.88 985.081 478.88C985.027 478.867 984.987 478.833 984.961 478.78C984.947 478.727 984.941 478.633 984.941 478.5V477.32C984.941 475.96 984.954 475.16 984.981 474.92C985.007 474.64 985.034 474.12 985.061 473.36C985.101 472.6 985.121 471.987 985.121 471.52C985.107 471.4 985.114 471.027 985.141 470.4L985.161 469.68L985.201 468.24C985.107 468.373 985.027 468.513 984.961 468.66C984.827 468.887 984.701 469.133 984.581 469.4L984.381 469.8C984.154 470.24 983.894 470.76 983.601 471.36C983.307 471.947 983.054 472.447 982.841 472.86C982.601 473.34 982.294 473.96 981.921 474.72C981.561 475.467 981.281 476.06 981.081 476.5C980.734 477.313 980.534 477.72 980.481 477.72C980.441 477.72 980.381 477.653 980.301 477.52C980.221 477.387 980.167 477.3 980.141 477.26C980.047 477.113 979.901 476.807 979.701 476.34C979.501 475.86 979.341 475.44 979.221 475.08C979.141 474.84 978.794 474.167 978.181 473.06C977.701 472.14 977.454 471.66 977.441 471.62C977.307 471.353 977.127 470.907 976.901 470.28C976.754 469.947 976.641 469.653 976.561 469.4L976.521 470.28L976.481 471.64L976.441 475.58L976.421 478.7C976.421 478.82 976.387 478.893 976.321 478.92C976.254 478.947 976.174 478.96 976.081 478.96C975.987 478.947 975.914 478.94 975.861 478.94L975.421 478.96C975.181 478.987 975.007 479 974.901 479C974.701 479 974.581 478.96 974.541 478.88C974.514 478.787 974.507 478.6 974.521 478.32C974.521 477.88 974.514 477.46 974.501 477.06L974.461 474.6C974.461 474.227 974.474 473.84 974.501 473.44C974.527 473.027 974.547 472.66 974.561 472.34C974.627 471.38 974.661 470.707 974.661 470.32L974.701 466.56L974.681 465.48C974.681 465.013 974.714 464.747 974.781 464.68C974.821 464.64 974.867 464.62 974.921 464.62C974.961 464.62 975.021 464.633 975.101 464.66C975.181 464.687 975.281 464.693 975.401 464.68C975.521 464.667 975.687 464.66 975.901 464.66C976.154 464.66 976.341 464.673 976.461 464.7C976.581 464.74 976.667 464.84 976.721 465C976.774 465.147 976.821 465.32 976.861 465.52C976.901 465.707 976.934 465.853 976.961 465.96ZM996.623 467.06C996.623 467.327 996.603 467.573 996.563 467.8C996.549 468 996.456 468.1 996.283 468.1C996.229 468.1 996.156 468.087 996.063 468.06C995.969 468.033 995.896 468.013 995.843 468C995.643 467.96 995.063 467.94 994.103 467.94L993.343 467.92C993.169 467.907 992.916 467.9 992.583 467.9C992.343 467.9 992.163 467.907 992.043 467.92C991.643 467.947 991.289 467.96 990.983 467.96L989.923 467.94C989.816 467.94 989.756 467.967 989.743 468.02C989.729 468.06 989.723 468.167 989.723 468.34C989.723 468.58 989.716 468.787 989.703 468.96C989.676 469.493 989.663 469.927 989.663 470.26V471.44C989.663 471.72 989.669 471.933 989.683 472.08C989.789 472.093 989.969 472.1 990.223 472.1C990.449 472.113 990.916 472.12 991.623 472.12C991.916 472.12 992.343 472.107 992.903 472.08C993.329 472.053 993.609 472.04 993.743 472.04C993.929 472.04 994.116 472.053 994.303 472.08C994.489 472.093 994.629 472.1 994.723 472.1C994.896 472.1 994.983 472.18 994.983 472.34C994.983 472.393 994.976 472.473 994.963 472.58C994.949 472.673 994.943 472.8 994.943 472.96L994.963 474.02C994.963 474.14 994.949 474.227 994.923 474.28C994.896 474.32 994.849 474.34 994.783 474.34C994.743 474.34 994.683 474.333 994.603 474.32C994.536 474.293 994.476 474.28 994.423 474.28C994.303 474.28 994.076 474.273 993.743 474.26C993.423 474.247 992.983 474.24 992.423 474.24C991.823 474.24 991.303 474.267 990.863 474.32C990.423 474.373 990.156 474.4 990.063 474.4C989.916 474.4 989.829 474.393 989.803 474.38C989.736 474.38 989.696 474.373 989.683 474.36V476.36C989.776 476.36 989.849 476.353 989.903 476.34L990.463 476.32L992.823 476.3C993.303 476.3 993.683 476.307 993.963 476.32L995.343 476.34L996.183 476.32C996.343 476.32 996.449 476.36 996.503 476.44C996.556 476.507 996.583 476.607 996.583 476.74L996.563 477.14L996.543 478.54C996.543 478.753 996.496 478.887 996.403 478.94C996.309 478.98 996.176 479 996.003 479C995.829 478.987 995.689 478.98 995.583 478.98C995.009 478.98 994.516 478.973 994.103 478.96L992.063 478.94C991.903 478.94 991.103 478.96 989.663 479L988.903 479.02L988.783 479.04C988.703 479.04 988.656 479.02 988.643 478.98C988.629 478.927 988.623 478.833 988.623 478.7C988.609 478.553 988.603 478.307 988.603 477.96C988.603 477.853 988.596 477.74 988.583 477.62C988.569 477.487 988.563 477.313 988.563 477.1V474.36C988.563 474.093 988.569 473.833 988.583 473.58C988.609 473.327 988.623 473.14 988.623 473.02C988.676 472.407 988.703 471.82 988.703 471.26C988.703 470.567 988.683 470.02 988.643 469.62C988.616 469.167 988.603 468.753 988.603 468.38C988.603 467.54 988.623 466.56 988.663 465.44C988.663 465.267 988.696 465.153 988.763 465.1C988.829 465.033 988.923 465 989.043 465L989.343 465.02C989.463 465.02 989.656 465.033 989.923 465.06C990.189 465.073 990.516 465.08 990.903 465.08C991.343 465.08 991.863 465.047 992.463 464.98C993.183 464.927 993.663 464.9 993.903 464.9C994.449 464.9 994.949 464.92 995.403 464.96L996.123 464.98C996.296 464.98 996.409 465.02 996.463 465.1C996.516 465.18 996.543 465.327 996.543 465.54C996.543 465.66 996.556 465.867 996.583 466.16C996.609 466.507 996.623 466.807 996.623 467.06ZM1004.67 466.54C1004.67 465.713 1004.68 465.2 1004.69 465C1004.69 464.747 1004.78 464.593 1004.95 464.54C1005.12 464.487 1005.38 464.46 1005.71 464.46C1006 464.46 1006.38 464.447 1006.83 464.42C1007.3 464.38 1007.66 464.34 1007.91 464.3C1008.1 464.287 1008.23 464.32 1008.31 464.4C1008.39 464.467 1008.43 464.587 1008.43 464.76C1008.43 464.813 1008.42 464.96 1008.39 465.2C1008.36 465.4 1008.35 466.727 1008.35 469.18V473.7C1008.35 474.38 1008.36 475.133 1008.37 475.96C1008.4 476.773 1008.42 477.507 1008.45 478.16C1008.48 478.813 1008.49 478.993 1008.49 478.7C1008.49 478.913 1008.38 479.02 1008.17 479.02C1008.08 479.02 1008 479.013 1007.93 479C1007.88 478.987 1007.77 478.98 1007.61 478.98C1007.45 478.98 1007.2 478.993 1006.85 479.02C1006.48 479.047 1006.22 479.06 1006.07 479.06C1005.82 479.06 1005.62 479.007 1005.49 478.9C1005.37 478.793 1005.24 478.6 1005.11 478.32L1004.77 477.64C1004.37 476.747 1004.02 476.047 1003.71 475.54C1003.54 475.247 1003.1 474.44 1002.39 473.12L1001.51 471.46V472.22V472.68C1001.51 472.787 1001.5 472.92 1001.49 473.08C1001.49 473.24 1001.5 473.42 1001.51 473.62C1001.51 474.313 1001.52 475.22 1001.53 476.34C1001.56 477.46 1001.59 478.133 1001.63 478.36C1001.64 478.427 1001.65 478.507 1001.65 478.6C1001.65 478.733 1001.62 478.82 1001.57 478.86C1001.52 478.887 1001.42 478.893 1001.27 478.88C1001.06 478.88 1000.8 478.893 1000.51 478.92C1000.23 478.947 999.964 478.973 999.711 479C999.511 479.027 999.377 478.993 999.311 478.9C999.257 478.807 999.237 478.6 999.251 478.28C999.251 477.8 999.231 476.953 999.191 475.74C999.137 474.473 999.104 473.373 999.091 472.44C999.091 471.493 999.111 470.533 999.151 469.56C999.177 468.333 999.191 467.493 999.191 467.04C999.191 466.427 999.171 465.98 999.131 465.7C999.104 465.46 999.091 465.307 999.091 465.24C999.091 465 999.131 464.84 999.211 464.76C999.291 464.667 999.397 464.62 999.531 464.62C999.597 464.62 999.731 464.627 999.931 464.64C1000.13 464.64 1000.42 464.593 1000.79 464.5C1000.94 464.473 1001.08 464.46 1001.23 464.46C1001.31 464.46 1001.42 464.467 1001.57 464.48C1001.72 464.493 1001.91 464.5 1002.15 464.5C1002.46 464.5 1002.71 464.62 1002.91 464.86C1003.12 465.1 1003.35 465.44 1003.59 465.88L1003.79 466.24C1003.95 466.533 1004.14 466.847 1004.37 467.18L1004.67 467.64V466.54ZM1020.2 465.44C1020.2 465.507 1020.19 465.68 1020.16 465.96C1020.15 466.24 1020.14 466.587 1020.14 467C1020.14 467.373 1020.16 467.88 1020.2 468.52C1020.2 468.88 1019.97 469.06 1019.5 469.06H1015.98L1015.94 471.12C1015.93 471.347 1015.92 471.913 1015.92 472.82C1015.92 473.753 1015.93 474.66 1015.94 475.54C1015.96 476.42 1015.96 477.18 1015.96 477.82L1015.98 478.64V478.74C1015.98 478.86 1015.96 478.933 1015.92 478.96C1015.9 478.987 1015.86 479 1015.8 479C1015.75 479 1015.71 479 1015.68 479H1014.32C1014.16 479 1014.07 478.973 1014.04 478.92C1014.02 478.867 1014 478.773 1014 478.64C1014 478.493 1014 478.387 1014 478.32L1014.08 475.84C1014.16 473.68 1014.2 472.293 1014.2 471.68C1014.2 471.333 1014.19 470.813 1014.16 470.12L1014.14 469.06C1013.18 469.06 1012.21 469.073 1011.22 469.1L1010.6 469.12C1010.43 469.12 1010.31 469.073 1010.24 468.98C1010.18 468.887 1010.16 468.78 1010.2 468.66L1010.22 468.16C1010.25 467.387 1010.26 466.673 1010.26 466.02C1010.26 465.7 1010.26 465.507 1010.24 465.44V465.3C1010.24 465.153 1010.27 465.067 1010.32 465.04C1010.39 465.013 1010.48 465 1010.6 465H1012.58L1013.7 464.98C1014.4 464.953 1014.88 464.94 1015.16 464.94L1016.36 464.96C1017.32 464.987 1018.08 465 1018.62 465C1019.02 465 1019.28 464.993 1019.4 464.98C1019.7 464.967 1019.9 465.013 1020.02 465.12C1020.14 465.213 1020.2 465.32 1020.2 465.44ZM1037.64 477.34C1037.77 477.447 1037.84 477.593 1037.84 477.78C1037.84 477.873 1037.8 477.953 1037.72 478.02C1037.68 478.047 1037.63 478.093 1037.58 478.16C1037.53 478.213 1037.43 478.28 1037.3 478.36C1037.22 478.453 1037.14 478.5 1037.06 478.5C1036.95 478.5 1036.84 478.433 1036.72 478.3C1036.61 478.167 1036.55 478.087 1036.52 478.06C1036.47 478.007 1036.41 477.947 1036.36 477.88C1036.31 477.813 1036.25 477.747 1036.18 477.68L1035.96 477.42C1035.69 477.7 1035.35 477.967 1034.94 478.22C1034.03 478.74 1033.03 479 1031.94 479C1031.26 479 1030.63 478.9 1030.06 478.7C1029.5 478.5 1029.07 478.253 1028.78 477.96C1028.39 477.667 1028.09 477.26 1027.88 476.74C1027.67 476.22 1027.56 475.513 1027.56 474.62C1027.56 473.873 1027.91 473.1 1028.6 472.3C1028.91 471.94 1029.26 471.607 1029.66 471.3C1029.33 471.047 1029.03 470.733 1028.78 470.36C1028.19 469.547 1027.9 468.58 1027.9 467.46C1027.9 466.127 1028.25 465.267 1028.94 464.88C1029.63 464.493 1030.33 464.3 1031.04 464.3C1031.59 464.3 1032.09 464.433 1032.54 464.7C1032.99 464.967 1033.35 465.367 1033.62 465.9C1033.9 466.433 1034.04 467.067 1034.04 467.8C1034.04 468.733 1033.69 469.66 1032.98 470.58C1032.7 470.953 1032.35 471.313 1031.94 471.66L1033.5 473.22C1033.65 473.313 1033.89 473.533 1034.22 473.88C1034.57 474.227 1034.79 474.447 1034.88 474.54L1035.84 475.6L1036.04 475.3C1036.2 475.02 1036.31 474.767 1036.38 474.54C1036.47 474.247 1036.52 473.9 1036.52 473.5C1036.52 473.113 1036.53 472.88 1036.54 472.8C1036.57 472.707 1036.63 472.64 1036.74 472.6C1036.9 472.547 1037.05 472.52 1037.18 472.52C1037.29 472.52 1037.39 472.567 1037.5 472.66C1037.62 472.753 1037.69 472.86 1037.7 472.98L1037.72 473.24C1037.72 473.267 1037.71 473.32 1037.7 473.4C1037.7 473.467 1037.7 473.64 1037.7 473.92C1037.7 474.293 1037.53 474.813 1037.18 475.48C1037.06 475.747 1036.89 476.047 1036.66 476.38L1037.08 476.8L1037.64 477.34ZM1029.14 467.1C1029.14 467.74 1029.17 468.24 1029.24 468.6C1029.32 468.96 1029.52 469.333 1029.84 469.72C1030 469.88 1030.16 470.053 1030.32 470.24C1030.47 470.387 1030.57 470.487 1030.62 470.54C1030.69 470.58 1030.77 470.6 1030.88 470.6C1031.01 470.6 1031.25 470.453 1031.6 470.16C1031.96 469.867 1032.28 469.507 1032.56 469.08C1032.84 468.653 1032.98 468.227 1032.98 467.8C1032.98 467.08 1032.81 466.493 1032.46 466.04C1032.13 465.587 1031.66 465.36 1031.06 465.36C1030.81 465.36 1030.53 465.427 1030.22 465.56C1029.93 465.68 1029.67 465.873 1029.46 466.14C1029.25 466.407 1029.14 466.727 1029.14 467.1ZM1034.9 476.92C1034.94 476.853 1034.96 476.793 1034.96 476.74C1034.96 476.647 1034.83 476.467 1034.56 476.2C1034.49 476.133 1034.09 475.733 1033.34 475C1032.59 474.253 1032.13 473.72 1031.94 473.4C1031.86 473.333 1031.73 473.193 1031.54 472.98C1031.29 472.713 1031.09 472.513 1030.94 472.38C1030.79 472.247 1030.66 472.18 1030.54 472.18C1030.46 472.18 1030.25 472.313 1029.92 472.58C1029.59 472.847 1029.28 473.18 1029 473.58C1028.73 473.98 1028.6 474.387 1028.6 474.8C1028.56 475.4 1028.65 475.927 1028.86 476.38C1029.09 476.847 1029.42 477.227 1029.86 477.52C1030.31 477.813 1030.95 477.96 1031.76 477.96C1032.84 477.96 1033.59 477.867 1034 477.68C1034.41 477.48 1034.66 477.313 1034.74 477.18C1034.83 477.033 1034.89 476.947 1034.9 476.92ZM1048.96 465C1049.77 465 1050.64 465.22 1051.56 465.66C1052.48 466.087 1053.28 466.873 1053.98 468.02C1054.67 469.167 1055.02 470.727 1055.02 472.7C1055.02 474.5 1054.58 475.867 1053.72 476.8C1052.86 477.72 1051.96 478.313 1051.02 478.58C1050.07 478.833 1049.28 478.96 1048.66 478.96L1047.02 478.98C1046.72 478.993 1046.36 479 1045.94 479C1045.68 479 1045.56 478.773 1045.56 478.32L1045.58 477.8L1045.54 476.8L1045.52 475.9L1045.5 475.3C1045.44 474.607 1045.42 473.82 1045.42 472.94C1045.42 472.42 1045.44 471.733 1045.5 470.88C1045.55 470.027 1045.58 469.327 1045.58 468.78L1045.56 466.1C1045.54 465.887 1045.54 465.647 1045.54 465.38C1045.54 465.233 1045.63 465.147 1045.82 465.12C1046.02 465.08 1046.22 465.067 1046.44 465.08C1046.65 465.08 1046.8 465.08 1046.88 465.08L1047.6 465.04C1048.16 465.013 1048.61 465 1048.96 465ZM1049 474.72C1049.36 474.547 1049.69 474.307 1050 474C1050.66 473.36 1051 472.6 1051 471.72C1051 470.88 1050.68 470.207 1050.04 469.7C1049.76 469.487 1049.44 469.327 1049.1 469.22C1049.12 469.513 1049.14 469.74 1049.14 469.9C1049.14 470.153 1049.12 470.52 1049.1 471C1049.07 471.453 1049.06 471.787 1049.06 472C1049.06 472.347 1049.04 472.907 1049.02 473.68C1049 473.907 1049 474.253 1049 474.72ZM1065.36 465.92C1065.36 466.227 1065.33 466.38 1065.28 466.38C1065.2 466.38 1065.11 466.373 1065 466.36C1064.91 466.333 1064.79 466.32 1064.64 466.32H1061.44L1058.96 466.3C1058.88 466.3 1058.58 466.32 1058.06 466.36L1057.6 466.4L1057.56 466.94C1057.55 467.14 1057.54 467.453 1057.54 467.88C1057.54 468.093 1057.55 468.373 1057.58 468.72C1057.61 469.04 1057.62 469.273 1057.62 469.42V470.22C1057.62 470.433 1057.63 470.6 1057.64 470.72C1057.76 470.733 1057.94 470.74 1058.18 470.74H1058.98C1059.06 470.74 1059.22 470.727 1059.46 470.7C1059.81 470.673 1060.11 470.66 1060.36 470.66C1060.47 470.66 1060.84 470.68 1061.48 470.72L1061.92 470.74C1062.03 470.74 1062.18 470.733 1062.38 470.72C1062.58 470.693 1062.77 470.68 1062.96 470.68L1063.62 470.7C1063.97 470.727 1064.21 470.74 1064.34 470.74C1064.49 470.74 1064.59 470.733 1064.64 470.72L1064.76 470.7C1064.85 470.7 1064.92 470.733 1064.96 470.8C1065 470.853 1065.01 470.907 1065 470.96C1064.99 471.053 1064.98 471.173 1064.98 471.32C1064.98 471.453 1064.97 471.573 1064.96 471.68C1064.95 471.787 1064.93 471.853 1064.9 471.88C1064.87 471.893 1064.79 471.9 1064.66 471.9L1063.86 471.82C1062.86 471.727 1062.21 471.68 1061.9 471.68C1060.77 471.68 1059.93 471.7 1059.4 471.74C1059.19 471.767 1058.95 471.78 1058.7 471.78C1058.45 471.78 1058.29 471.78 1058.22 471.78C1057.97 471.78 1057.78 471.773 1057.66 471.76L1057.6 472.08C1057.57 472.32 1057.56 472.533 1057.56 472.72C1057.56 472.88 1057.57 473.067 1057.6 473.28C1057.63 473.493 1057.64 473.68 1057.64 473.84L1057.66 476.22L1057.64 477.22C1057.63 477.34 1057.62 477.507 1057.62 477.72C1057.79 477.733 1058.05 477.74 1058.38 477.74C1058.66 477.753 1059.09 477.76 1059.68 477.76L1060.76 477.78C1060.99 477.793 1061.33 477.8 1061.8 477.8C1062.08 477.8 1062.45 477.787 1062.9 477.76L1063.74 477.74C1064.06 477.74 1064.33 477.747 1064.54 477.76C1064.75 477.773 1064.91 477.78 1065.02 477.78C1065.13 477.78 1065.19 477.8 1065.2 477.84C1065.23 477.88 1065.24 477.967 1065.24 478.1C1065.24 478.193 1065.23 478.293 1065.22 478.4C1065.21 478.493 1065.2 478.6 1065.2 478.72C1065.2 478.813 1065.17 478.88 1065.1 478.92C1065.03 478.947 1064.93 478.96 1064.78 478.96C1064.63 478.96 1064.51 478.953 1064.42 478.94C1064.06 478.9 1063.33 478.88 1062.24 478.88C1061.57 478.88 1061.09 478.887 1060.8 478.9C1060.57 478.913 1060.2 478.92 1059.68 478.92L1057.82 478.9C1057.61 478.887 1057.35 478.88 1057.06 478.88C1056.87 478.88 1056.75 478.86 1056.68 478.82C1056.63 478.767 1056.6 478.687 1056.6 478.58L1056.62 478.26C1056.63 478.207 1056.64 478.147 1056.64 478.08C1056.64 478.04 1056.63 477.947 1056.62 477.8C1056.61 477.64 1056.6 477.353 1056.6 476.94C1056.6 476.54 1056.59 475.887 1056.56 474.98C1056.52 474.233 1056.5 473.513 1056.5 472.82C1056.5 472.527 1056.53 471.68 1056.6 470.28C1056.61 470 1056.63 469.72 1056.64 469.44C1056.65 469.16 1056.66 468.907 1056.66 468.68C1056.66 467.133 1056.64 466.113 1056.6 465.62C1056.56 465.3 1056.75 465.14 1057.18 465.14C1057.29 465.14 1057.46 465.153 1057.7 465.18C1057.91 465.207 1058.07 465.22 1058.18 465.22L1059.44 465.18C1060.35 465.127 1061.05 465.1 1061.54 465.1C1062.11 465.1 1062.92 465.113 1063.96 465.14C1064.29 465.153 1064.65 465.16 1065.02 465.16C1065.18 465.16 1065.28 465.2 1065.32 465.28C1065.36 465.36 1065.37 465.447 1065.36 465.54C1065.36 465.62 1065.36 465.673 1065.36 465.7V465.92ZM1071.44 464.9C1072.6 464.9 1073.46 465.127 1074.02 465.58C1074.58 466.033 1074.87 466.273 1074.9 466.3C1075.03 466.393 1075.1 466.487 1075.1 466.58C1075.1 466.633 1075.07 466.687 1075.02 466.74C1074.98 466.793 1074.9 466.907 1074.78 467.08C1074.66 467.253 1074.56 467.34 1074.5 467.34C1074.43 467.34 1074.34 467.307 1074.24 467.24L1074.1 467.12C1073.08 466.387 1072.22 466.02 1071.5 466.02C1070.58 466.02 1069.88 466.233 1069.4 466.66C1068.93 467.073 1068.7 467.6 1068.7 468.24C1068.7 468.787 1068.89 469.253 1069.28 469.64C1069.68 470.027 1070.2 470.393 1070.84 470.74C1071.02 470.82 1071.22 470.893 1071.42 470.96C1072.08 471.213 1072.66 471.487 1073.16 471.78C1073.66 472.06 1074.12 472.493 1074.52 473.08C1074.92 473.653 1075.12 474.38 1075.12 475.26C1075.12 476.767 1074.6 477.8 1073.58 478.36C1072.55 478.907 1071.4 479.18 1070.14 479.18C1069.4 479.18 1068.74 479.013 1068.14 478.68C1067.55 478.347 1067.13 478.053 1066.88 477.8C1066.74 477.68 1066.71 477.56 1066.78 477.44C1066.79 477.413 1066.84 477.307 1066.94 477.12C1067.04 476.933 1067.14 476.84 1067.22 476.84H1067.26C1067.3 476.84 1067.33 476.853 1067.36 476.88C1067.4 476.893 1067.44 476.927 1067.48 476.98C1067.53 477.033 1067.59 477.093 1067.66 477.16C1067.83 477.333 1068.17 477.533 1068.68 477.76C1069.18 477.973 1069.6 478.08 1069.94 478.08C1070.64 478.08 1071.32 477.933 1071.96 477.64C1072.6 477.333 1072.92 476.693 1072.92 475.72C1072.92 475.307 1072.73 474.947 1072.36 474.64C1072 474.333 1071.43 473.973 1070.66 473.56L1069.8 473.08C1068.86 472.547 1068.13 471.973 1067.6 471.36C1067.08 470.747 1066.82 469.94 1066.82 468.94C1066.82 468.113 1067.05 467.393 1067.52 466.78C1068 466.167 1068.59 465.7 1069.3 465.38C1070.02 465.06 1070.73 464.9 1071.44 464.9ZM1078.31 465.64C1078.27 465.933 1078.24 466.687 1078.21 467.9C1078.21 468.273 1078.19 469.22 1078.13 470.74C1078.08 472.207 1078.05 473.1 1078.05 473.42C1078.05 474.193 1078.07 475.173 1078.09 476.36C1078.12 477.533 1078.15 478.233 1078.17 478.46C1078.19 478.54 1078.19 478.633 1078.19 478.74C1078.19 478.833 1078.17 478.9 1078.13 478.94C1078.11 478.98 1078.06 479.02 1077.99 479.06C1077.91 479.113 1077.71 479.14 1077.37 479.14C1077.32 479.14 1077.23 479.14 1077.11 479.14C1077.01 479.14 1076.94 479.127 1076.91 479.1C1076.89 479.073 1076.87 479.02 1076.87 478.94L1076.89 478.3L1076.93 475.68L1076.97 471.48C1076.97 471.08 1077 470.173 1077.05 468.76C1077.07 468.427 1077.09 467.887 1077.11 467.14C1077.14 466.38 1077.14 465.933 1077.11 465.8L1077.09 465.38C1077.09 465.033 1077.2 464.86 1077.41 464.86L1078.15 464.88C1078.29 464.88 1078.35 464.973 1078.35 465.16C1078.35 465.227 1078.35 465.307 1078.33 465.4C1078.32 465.48 1078.31 465.56 1078.31 465.64ZM1085.28 464.62C1086.53 464.62 1087.47 464.933 1088.1 465.56C1088.74 466.187 1089.2 466.78 1089.48 467.34C1089.53 467.473 1089.59 467.613 1089.64 467.76C1089.69 467.907 1089.74 468.033 1089.78 468.14C1089.79 468.167 1089.8 468.2 1089.8 468.24C1089.8 468.28 1089.78 468.313 1089.74 468.34C1089.71 468.367 1089.67 468.393 1089.62 468.42C1089.57 468.433 1089.51 468.46 1089.44 468.5L1088.98 468.74C1088.51 468.993 1088.19 469.16 1088 469.24C1087.71 469.413 1087.47 469.567 1087.28 469.7L1086.9 469.96C1086.82 470.027 1086.69 470.113 1086.52 470.22C1086.47 470.26 1086.41 470.28 1086.36 470.28C1086.28 470.307 1086.23 470.32 1086.2 470.32C1086.13 470.32 1086.07 470.273 1086.02 470.18C1085.98 470.087 1085.94 470.013 1085.9 469.96C1085.87 469.92 1085.82 469.84 1085.74 469.72C1085.66 469.6 1085.56 469.5 1085.44 469.42C1085.33 469.327 1085.21 469.28 1085.06 469.28C1084.66 469.28 1084.35 469.593 1084.12 470.22C1083.89 470.833 1083.78 471.48 1083.78 472.16C1083.78 472.787 1083.79 473.293 1083.82 473.68C1083.86 474.053 1083.97 474.4 1084.14 474.72C1084.33 475.04 1084.63 475.2 1085.04 475.2C1085.57 475.2 1085.95 474.867 1086.16 474.2C1086.25 473.92 1086.3 473.587 1086.3 473.2L1085.9 473.12C1085.58 473.067 1085.35 473.033 1085.2 473.02C1084.95 472.993 1084.82 472.9 1084.82 472.74C1084.82 472.647 1084.87 472.387 1084.98 471.96C1085.05 471.747 1085.11 471.62 1085.18 471.58C1085.25 471.54 1085.35 471.527 1085.48 471.54C1085.55 471.553 1085.7 471.58 1085.94 471.62C1086.19 471.647 1086.59 471.687 1087.12 471.74L1088.22 471.9C1088.97 472.007 1089.47 472.067 1089.72 472.08C1089.95 472.093 1090.1 472.213 1090.18 472.44C1090.21 472.573 1090.21 472.687 1090.2 472.78C1090.11 474.433 1089.79 475.747 1089.26 476.72C1088.74 477.68 1088.13 478.347 1087.44 478.72C1086.75 479.093 1086.06 479.28 1085.38 479.28C1084.77 479.28 1084.03 479.087 1083.18 478.7C1082.34 478.313 1081.58 477.593 1080.9 476.54C1080.22 475.487 1079.88 474.053 1079.88 472.24C1079.88 470.133 1080.2 468.52 1080.84 467.4C1081.48 466.267 1082.2 465.52 1083 465.16C1083.8 464.8 1084.56 464.62 1085.28 464.62ZM1097.76 466.54C1097.76 465.713 1097.76 465.2 1097.78 465C1097.78 464.747 1097.86 464.593 1098.04 464.54C1098.21 464.487 1098.46 464.46 1098.8 464.46C1099.09 464.46 1099.46 464.447 1099.92 464.42C1100.38 464.38 1100.74 464.34 1101 464.3C1101.18 464.287 1101.32 464.32 1101.4 464.4C1101.48 464.467 1101.52 464.587 1101.52 464.76C1101.52 464.813 1101.5 464.96 1101.48 465.2C1101.45 465.4 1101.44 466.727 1101.44 469.18V473.7C1101.44 474.38 1101.44 475.133 1101.46 475.96C1101.48 476.773 1101.51 477.507 1101.54 478.16C1101.56 478.813 1101.58 478.993 1101.58 478.7C1101.58 478.913 1101.47 479.02 1101.26 479.02C1101.16 479.02 1101.08 479.013 1101.02 479C1100.96 478.987 1100.86 478.98 1100.7 478.98C1100.54 478.98 1100.28 478.993 1099.94 479.02C1099.56 479.047 1099.3 479.06 1099.16 479.06C1098.9 479.06 1098.71 479.007 1098.58 478.9C1098.46 478.793 1098.33 478.6 1098.2 478.32L1097.86 477.64C1097.46 476.747 1097.1 476.047 1096.8 475.54C1096.62 475.247 1096.18 474.44 1095.48 473.12L1094.6 471.46V472.22V472.68C1094.6 472.787 1094.59 472.92 1094.58 473.08C1094.58 473.24 1094.58 473.42 1094.6 473.62C1094.6 474.313 1094.6 475.22 1094.62 476.34C1094.64 477.46 1094.68 478.133 1094.72 478.36C1094.73 478.427 1094.74 478.507 1094.74 478.6C1094.74 478.733 1094.71 478.82 1094.66 478.86C1094.6 478.887 1094.5 478.893 1094.36 478.88C1094.14 478.88 1093.89 478.893 1093.6 478.92C1093.32 478.947 1093.05 478.973 1092.8 479C1092.6 479.027 1092.46 478.993 1092.4 478.9C1092.34 478.807 1092.32 478.6 1092.34 478.28C1092.34 477.8 1092.32 476.953 1092.28 475.74C1092.22 474.473 1092.19 473.373 1092.18 472.44C1092.18 471.493 1092.2 470.533 1092.24 469.56C1092.26 468.333 1092.28 467.493 1092.28 467.04C1092.28 466.427 1092.26 465.98 1092.22 465.7C1092.19 465.46 1092.18 465.307 1092.18 465.24C1092.18 465 1092.22 464.84 1092.3 464.76C1092.38 464.667 1092.48 464.62 1092.62 464.62C1092.68 464.62 1092.82 464.627 1093.02 464.64C1093.22 464.64 1093.5 464.593 1093.88 464.5C1094.02 464.473 1094.17 464.46 1094.32 464.46C1094.4 464.46 1094.51 464.467 1094.66 464.48C1094.8 464.493 1095 464.5 1095.24 464.5C1095.54 464.5 1095.8 464.62 1096 464.86C1096.21 465.1 1096.44 465.44 1096.68 465.88L1096.88 466.24C1097.04 466.533 1097.23 466.847 1097.46 467.18L1097.76 467.64V466.54Z" fill="white"/>
</g>
<defs>
<filter id="filter0_f_47_2" x="695" y="186" width="113" height="108" filterUnits="userSpaceOnUse" color-interpolation-filters="sRGB">
<feFlood flood-opacity="0" result="BackgroundImageFix"/>
<feBlend mode="normal" in="SourceGraphic" in2="BackgroundImageFix" result="shape"/>
<feGaussianBlur stdDeviation="1" result="effect1_foregroundBlur_47_2"/>
</filter>
<clipPath id="clip0_47_2">
<rect width="1500" height="500" fill="white"/>
</clipPath>
</defs>
</svg>
